<svg width="700" height="800" viewBox="0 0 700 800" fill="none" xmlns="http://www.w3.org/2000/svg">
<g opacity="0.3">
<path d="M359.992 171.956C359.992 171.956 362.327 116.301 401.985 105.978C362.322 95.6551 359.992 40 359.992 40C359.992 40 357.657 95.6551 318 105.978C357.657 116.296 359.992 171.956 359.992 171.956Z" stroke="#C7AB77" stroke-width="3" stroke-miterlimit="10" stroke-linecap="round" stroke-linejoin="round"/>
<path d="M608.992 674.956C608.992 674.956 611.327 619.301 650.985 608.978C611.322 598.655 608.992 543 608.992 543C608.992 543 606.657 598.655 567 608.978C606.657 619.296 608.992 674.956 608.992 674.956Z" stroke="#C7AB77" stroke-width="3" stroke-miterlimit="10" stroke-linecap="round" stroke-linejoin="round"/>
<path d="M110.992 674.956C110.992 674.956 113.327 619.301 152.985 608.978C113.322 598.655 110.992 543 110.992 543C110.992 543 108.657 598.655 69 608.978C108.657 619.296 110.992 674.956 110.992 674.956Z" stroke="#C7AB77" stroke-width="3" stroke-miterlimit="10" stroke-linecap="round" stroke-linejoin="round"/>
<path d="M354.69 401.426C340.016 401.426 335.19 406.572 335.19 414.936C335.19 425.954 346.539 439.589 365.426 439.589C390.232 437.661 406.357 420.229 406.357 392.619C406.357 384.567 398.976 337.262 347.645 337.262C296.314 337.262 280.545 384.903 280.545 408.723C280.545 432.543 302.353 483.875 358.381 483.875C414.409 483.875 444.268 433.55 444.268 395.639C444.268 357.727 412.396 303.377 349.658 303.377C286.92 303.377 250.015 358.398 250.015 405.368C250.015 452.338 288.597 512.056 358.381 512.056C428.165 512.056 470.773 446.634 470.773 397.316C470.773 347.998 429.171 279.221 350.665 279.221C272.158 279.221 226.195 348.669 226.195 404.697C226.195 460.725 272.829 533.528 359.387 533.528C445.946 533.528 491.909 455.357 491.909 396.645C491.909 337.933 439.907 258.084 351.336 258.084C315.401 258.084 293.74 271.744 293.74 271.744" stroke="#C7AB77" stroke-width="3"/>
</g>
</svg>
