<svg width="700" height="800" viewBox="0 0 700 800" fill="none" xmlns="http://www.w3.org/2000/svg">
<g opacity="0.3">
<path d="M137.025 157.557L163.526 133.138C164.292 132.433 163.604 131.173 162.597 131.435L127.725 140.5L119.105 105.886C118.853 104.876 117.417 104.875 117.164 105.885L108.403 140.885L73.8785 131.875C72.8707 131.612 72.1824 132.873 72.9486 133.578L99.2482 157.798L73.5009 182.808C72.7539 183.534 73.4754 184.776 74.4758 184.486L108.741 174.566L117.15 209.459C117.394 210.472 118.83 210.483 119.09 209.475L128.063 174.711L162.551 183.81C163.558 184.075 164.249 182.818 163.486 182.11L137.025 157.557Z" stroke="#C7AB77" stroke-width="3" stroke-miterlimit="10"/>
<path d="M601.025 157.557L627.526 133.138C628.292 132.433 627.604 131.173 626.597 131.435L591.725 140.5L583.105 105.886C582.853 104.876 581.417 104.875 581.164 105.885L572.403 140.885L537.879 131.875C536.871 131.612 536.182 132.873 536.949 133.578L563.248 157.798L537.501 182.808C536.754 183.534 537.475 184.776 538.476 184.486L572.741 174.566L581.15 209.459C581.394 210.472 582.83 210.483 583.09 209.475L592.063 174.711L626.551 183.81C627.558 184.075 628.249 182.818 627.486 182.11L601.025 157.557Z" stroke="#C7AB77" stroke-width="3" stroke-miterlimit="10"/>
<path d="M374.025 626.557L400.526 602.138C401.292 601.433 400.604 600.173 399.597 600.435L364.725 609.5L356.105 574.886C355.853 573.876 354.417 573.875 354.164 574.885L345.403 609.885L310.879 600.875C309.871 600.612 309.182 601.873 309.949 602.578L336.248 626.798L310.501 651.808C309.754 652.534 310.475 653.776 311.476 653.486L345.741 643.566L354.15 678.459C354.394 679.472 355.83 679.483 356.09 678.475L365.063 643.711L399.551 652.81C400.558 653.075 401.249 651.818 400.486 651.11L374.025 626.557Z" stroke="#C7AB77" stroke-width="3" stroke-miterlimit="10"/>
<path d="M373.259 401.287C387.933 401.287 392.76 396.141 392.76 387.778C392.76 376.759 381.41 363.125 362.523 363.125C337.718 365.052 321.592 382.484 321.592 410.094C321.592 418.146 328.973 465.451 380.305 465.451C431.636 465.451 447.404 417.811 447.404 393.99C447.404 370.17 425.597 318.839 369.569 318.839C313.541 318.839 283.681 369.164 283.681 407.075C283.681 444.986 315.554 499.337 378.292 499.337C441.03 499.337 477.934 444.315 477.934 397.345C477.934 350.376 439.352 290.657 369.569 290.657C299.785 290.657 257.177 356.079 257.177 405.397C257.177 454.715 298.779 523.493 377.285 523.493C455.792 523.493 501.755 454.044 501.755 398.016C501.755 341.988 455.121 269.185 368.562 269.185C282.004 269.185 236.041 347.356 236.041 406.068C236.041 464.78 288.043 544.629 376.614 544.629C412.549 544.629 434.21 530.969 434.21 530.969" stroke="#C7AB77" stroke-width="3"/>
</g>
</svg>
