<svg width="700" height="800" viewBox="0 0 700 800" fill="none" xmlns="http://www.w3.org/2000/svg">
<g opacity="0.3">
<path d="M359.992 171.956C359.992 171.956 362.327 116.301 401.985 105.978C362.322 95.6551 359.992 40 359.992 40C359.992 40 357.657 95.6551 318 105.978C357.657 116.296 359.992 171.956 359.992 171.956Z" stroke="#C7AB77" stroke-width="3" stroke-miterlimit="10" stroke-linecap="round" stroke-linejoin="round"/>
<path d="M608.992 674.956C608.992 674.956 611.327 619.301 650.985 608.978C611.322 598.655 608.992 543 608.992 543C608.992 543 606.657 598.655 567 608.978C606.657 619.296 608.992 674.956 608.992 674.956Z" stroke="#C7AB77" stroke-width="3" stroke-miterlimit="10" stroke-linecap="round" stroke-linejoin="round"/>
<path d="M110.992 674.956C110.992 674.956 113.327 619.301 152.985 608.978C113.322 598.655 110.992 543 110.992 543C110.992 543 108.657 598.655 69 608.978C108.657 619.296 110.992 674.956 110.992 674.956Z" stroke="#C7AB77" stroke-width="3" stroke-miterlimit="10" stroke-linecap="round" stroke-linejoin="round"/>
<path d="M354.69 401.426C340.016 401.426 335.19 406.572 335.19 414.936C335.19 425.954 346.539 439.589 365.426 439.589C390.232 437.661 406.357 420.229 406.357 392.619C406.357 384.567 398.976 337.262 347.645 337.262C296.314 337.262 280.545 384.903 280.545 408.723C280.545 432.543 302.353 483.874 358.381 483.874C414.409 483.874 444.268 433.55 444.268 395.639C444.268 357.727 412.396 303.377 349.658 303.377C286.92 303.377 250.015 358.398 250.015 405.368C250.015 452.338 288.597 512.056 358.381 512.056C428.165 512.056 470.773 446.634 470.773 397.316C470.773 347.998 429.171 279.221 350.665 279.221C272.158 279.221 226.195 348.669 226.195 404.697C226.195 460.725 272.829 533.528 359.387 533.528C445.946 533.528 491.909 455.357 491.909 396.645C491.909 337.933 439.907 258.084 351.336 258.084C315.401 258.084 293.74 271.744 293.74 271.744" stroke="#C7AB77" stroke-width="3"/>
<path d="M353.259 401.288C367.933 401.288 372.76 396.142 372.76 387.778C372.76 376.759 361.41 363.125 342.523 363.125C317.718 365.052 301.592 382.484 301.592 410.094C301.592 418.146 308.973 465.451 360.305 465.451C411.636 465.451 427.404 417.811 427.404 393.99C427.404 370.17 405.597 318.839 349.569 318.839C293.541 318.839 263.681 369.164 263.681 407.075C263.681 444.986 295.554 499.337 358.292 499.337C421.03 499.337 457.934 444.315 457.934 397.345C457.934 350.376 419.352 290.657 349.569 290.657C279.785 290.657 237.177 356.079 237.177 405.397C237.177 454.716 278.779 523.493 357.285 523.493C435.792 523.493 481.755 454.045 481.755 398.016C481.755 341.988 435.121 269.185 348.562 269.185C262.004 269.185 216.041 347.356 216.041 406.068C216.041 464.78 268.043 544.629 356.614 544.629C392.549 544.629 414.21 530.969 414.21 530.969" stroke="#C7AB77" stroke-width="3"/>
<path d="M143.025 157.557L169.526 133.138C170.292 132.433 169.604 131.173 168.597 131.435L133.725 140.5L125.105 105.886C124.853 104.876 123.417 104.875 123.164 105.885L114.403 140.885L79.8785 131.875C78.8707 131.612 78.1824 132.873 78.9486 133.578L105.248 157.798L79.5009 182.808C78.7539 183.534 79.4754 184.776 80.4758 184.486L114.741 174.566L123.15 209.459C123.394 210.472 124.83 210.483 125.09 209.475L134.063 174.711L168.551 183.81C169.558 184.075 170.249 182.818 169.486 182.11L143.025 157.557Z" stroke="#C7AB77" stroke-width="3" stroke-miterlimit="10"/>
<path d="M607.025 157.557L633.526 133.138C634.292 132.433 633.604 131.173 632.597 131.435L597.725 140.5L589.105 105.886C588.853 104.876 587.417 104.875 587.164 105.885L578.403 140.885L543.879 131.875C542.871 131.612 542.182 132.873 542.949 133.578L569.248 157.798L543.501 182.808C542.754 183.534 543.475 184.776 544.476 184.486L578.741 174.566L587.15 209.459C587.394 210.472 588.83 210.483 589.09 209.475L598.063 174.711L632.551 183.81C633.558 184.075 634.249 182.818 633.486 182.11L607.025 157.557Z" stroke="#C7AB77" stroke-width="3" stroke-miterlimit="10"/>
<path d="M380.025 656.557L406.526 632.138C407.292 631.433 406.604 630.173 405.597 630.435L370.725 639.5L362.105 604.886C361.853 603.876 360.417 603.875 360.164 604.885L351.403 639.885L316.879 630.875C315.871 630.612 315.182 631.873 315.949 632.578L342.248 656.798L316.501 681.808C315.754 682.534 316.475 683.776 317.476 683.486L351.741 673.566L360.15 708.459C360.394 709.472 361.83 709.483 362.09 708.475L371.063 673.711L405.551 682.81C406.558 683.075 407.249 681.818 406.486 681.11L380.025 656.557Z" stroke="#C7AB77" stroke-width="3" stroke-miterlimit="10"/>
</g>
</svg>
