<svg fill="none" height="3260" viewBox="0 0 1680 3260" width="1680" xmlns="http://www.w3.org/2000/svg" xmlns:xlink="http://www.w3.org/1999/xlink"><linearGradient id="a"><stop offset="0" stop-color="#805e3c"/><stop offset="1" stop-color="#a08261"/></linearGradient><linearGradient id="b" gradientUnits="userSpaceOnUse" x1="1449.54" x2="1493.02" xlink:href="#a" y1="2372.79" y2="2369.06"/><linearGradient id="c" gradientUnits="userSpaceOnUse" x1="125.848" x2="61.7807" xlink:href="#a" y1="2609.33" y2="2579.65"/><linearGradient id="d"><stop offset="0" stop-color="#866a49"/><stop offset="1" stop-color="#9e7d5b"/></linearGradient><linearGradient id="e" gradientUnits="userSpaceOnUse" x1="1526.83" x2="1501.81" xlink:href="#d" y1="1242.3" y2="1252.52"/><linearGradient id="f" gradientUnits="userSpaceOnUse" x1="247.216" x2="198.692" xlink:href="#d" y1="1739.73" y2="1759.55"/><linearGradient id="g" gradientUnits="userSpaceOnUse" x1="59.828" x2="34.8055" xlink:href="#d" y1="745.297" y2="755.52"/><linearGradient id="h" gradientUnits="userSpaceOnUse" x1="696.54" x2="740.018" xlink:href="#a" y1="178.56" y2="182.298"/><linearGradient id="i" gradientUnits="userSpaceOnUse" x1="773.828" x2="748.806" xlink:href="#d" y1="1309.06" y2="1298.84"/><clipPath id="j"><path d="m0 0h1680v3260h-1680z"/></clipPath><clipPath id="k"><path d="m1018 456h436v436h-436z"/></clipPath><g clip-path="url(#j)"><g opacity=".4"><g fill="#b1995a"><path d="m1407.25 1381 2.01 2.3.09 10.42c2.54-.05 5.33-.19 7.84.16 1.51.21 3.16.56 4.15 1.8-.1.65.04.57-.42.95-2.55 2.06-8.47 1.29-11.63 1.21-.01 3.06.8 7.42-.18 10.29-.42 1.22-1.28 1.33-2.37 1.83l-.58-.19c-1.48-2.4-.9-8.62-.97-11.55-3.84-.33-8.91.43-12.11-2.05l-.08-.78c2.89-2.21 8.82-1.57 12.35-1.54.07-1.82-.03-3.63-.05-5.45-.04-2.94-.22-5.18 1.95-7.4z"/><path d="m1336.85 1884.89c-.44-5.29-1.58-10.14 1.41-14.89.87 1.29 1.83 2.58 2.54 3.96-.35 3.71-.59 7.43-.71 11.16 8-.38 7.37-1.14 15.51 1.28l-6.02 2.66c-3.01-.69-6.1-.86-9.17-1.13-1.71 5.33 2.43 8.2-1.81 16-3.6-6.76-1.48-8.84-1.67-15.89-3.74.2-7.61.21-11.31.78l-4.62-2.44c1.59-.67 2.95-1.36 4.41-2.29 3.86.95 7.48.88 11.44.8z"/><path d="m1617.29 1698.45c2.39 2.48 3.37 8.99 4.29 12.4.09.01.19.02.28.03l.46.07c3.74.49 7.54 2.05 11.15 3.14-.1.04-.19.08-.28.12l-.46.18c-3.77 1.55-7.83 1.86-11.63 3.34-.94 4.02-2.2 7.81-3.71 11.65-1.61-3.8-2.58-7.92-3.53-11.92-3.76-.9-7.49-1.9-11.19-3.03l-.35.23-.14-.75.35.01-.43.28-.27-.2c2.98-1.87 8.48-2.43 11.96-3.22.91-4.15 2.05-8.34 3.5-12.33z"/><path d="m1412.98 1712c1.65 3.01 2.8 6.38 4.08 9.56 3.49-.16 6.99-.39 10.49-.23-1.89 2.59-4.19 4.94-6.33 7.32 1.88 3.1 4.45 5.51 6.05 8.84-3.41-.21-6.94-.72-10.32-1.28-.49 1.85-2.63 8.26-4.05 9.14-1.07-2.3-2.2-6.44-3.98-8.11-1.52-1.43-8.31-.23-10.39-.11 1.97-2.59 4.07-5.07 6.29-7.46-2.46-2.72-4.71-5.69-6.82-8.68 3.54.67 7.22.79 10.81.85 1.31-3.32 2.57-6.65 4.17-9.84z"/></g><path d="m1527.32 1533c4.02 5.38 7.36 16.24 9.54 22.78 8.05.09 16.13-.09 24.18.25-.06.08-.11.16-.17.24-.09.12-.19.25-.28.38-3.9 5.39-12.34 11.25-17.94 14.97 1.83 7.96 4.34 15.93 5.45 24.02-7.08-3.51-13.77-7.98-20.49-12.13-7.09 3.7-13.71 8.72-20.98 12.01.5-5.95 3.26-17.5 5.99-22.79-6.55-5.33-12.77-10.63-18.62-16.73 7.91-.54 16.02-.27 23.96-.38 3.48-7.41 6.19-15.09 9.36-22.62z" fill="#886846"/></g><path d="m1353.98 3129c1.65 3.01 2.8 6.38 4.08 9.56 3.49-.16 6.99-.39 10.49-.23-1.89 2.59-4.19 4.94-6.33 7.32 1.88 3.1 4.45 5.51 6.05 8.84-3.41-.21-6.94-.72-10.32-1.28-.49 1.85-2.63 8.26-4.05 9.14-1.07-2.3-2.2-6.44-3.98-8.11-1.52-1.43-8.31-.23-10.39-.11 1.97-2.59 4.07-5.07 6.29-7.46-2.46-2.72-4.71-5.69-6.82-8.68 3.54.67 7.22.79 10.81.85 1.31-3.32 2.57-6.65 4.17-9.84z" fill="#b1995a" opacity=".3"/><path d="m1375.32 2789c4.02 5.38 7.36 16.24 9.54 22.78 8.05.09 16.13-.09 24.18.25-.06.08-.11.16-.17.24-.09.12-.19.25-.28.38-3.9 5.39-12.34 11.25-17.94 14.97 1.83 7.96 4.34 15.93 5.45 24.02-7.08-3.51-13.77-7.98-20.49-12.13-7.09 3.7-13.71 8.72-20.98 12.01.5-5.95 3.26-17.5 5.99-22.79-6.55-5.33-12.77-10.63-18.62-16.73 7.91-.54 16.02-.27 23.96-.38 3.48-7.41 6.19-15.09 9.36-22.62z" fill="#886846" opacity=".3"/><path d="m126.394 1954c2.542 3.4 4.658 10.28 6.034 14.42 5.099.05 10.208-.06 15.303.16-.035.04-.07.09-.105.14-.059.08-.121.16-.18.25-2.465 3.41-7.806 7.12-11.349 9.47 1.155 5.04 2.744 10.08 3.447 15.2-4.481-2.23-8.712-5.05-12.966-7.68-4.488 2.34-8.674 5.52-13.275 7.6.317-3.76 2.061-11.07 3.786-14.42-4.141-3.37-8.077-6.72-11.78-10.58 5.003-.35 10.136-.18 15.16-.25 2.201-4.68 3.919-9.55 5.925-14.31z" fill="#886846" opacity=".3"/><path d="m173.321 1022c4.018 5.38 7.361 16.24 9.536 22.78 8.057.09 16.132-.09 24.182.25-.055.08-.109.16-.165.24-.094.12-.191.25-.285.38-3.895 5.39-12.335 11.25-17.934 14.97 1.825 7.96 4.336 15.93 5.447 24.02-7.082-3.51-13.768-7.98-20.49-12.13-7.092 3.7-13.707 8.72-20.978 12.01.501-5.95 3.256-17.5 5.982-22.79-6.544-5.33-12.763-10.63-18.616-16.73 7.907-.54 16.019-.27 23.957-.38 3.478-7.41 6.195-15.09 9.364-22.62z" fill="#886846" opacity=".3"/><path d="m1476.46 2342.1c3.04-.27 5.93.05 8.95.45-7.53 1.87-14.85 5.35-19.35 11.93-3.54 5.16-4.71 11.72-3.5 17.83 1.29 6.48 5.51 11.98 10.97 15.57 8.44 5.56 14.41 4.5 23.79 2.54-1.91 1.88-3.9 3.35-6.15 4.79-3.08 1.85-6.73 3.18-10.29 3.66-.45.06-.9.1-1.36.14-.45.04-.9.06-1.36.08-.45.01-.91.01-1.36 0-.46 0-.91-.02-1.36-.05-.46-.04-.91-.08-1.36-.13s-.9-.12-1.35-.19c-.45-.08-.9-.16-1.34-.26s-.89-.21-1.32-.32c-.44-.12-.88-.25-1.31-.39s-.86-.29-1.29-.45c-.42-.17-.84-.34-1.26-.52s-.83-.37-1.24-.58c-.4-.2-.81-.41-1.2-.63-.4-.22-.79-.45-1.18-.7-.38-.24-.76-.49-1.13-.75-.38-.26-.74-.53-1.1-.8-.38-.3-.76-.61-1.13-.92-.36-.32-.72-.64-1.07-.98-.35-.33-.7-.67-1.03-1.02-.34-.35-.66-.71-.98-1.08-.31-.36-.62-.74-.92-1.12s-.59-.77-.87-1.16c-.28-.4-.55-.8-.8-1.21-.26-.41-.51-.82-.75-1.24-.24-.43-.47-.85-.69-1.28-.22-.44-.42-.87-.62-1.32-.2-.44-.38-.89-.56-1.34-.17-.45-.33-.91-.49-1.36-.15-.46-.29-.93-.42-1.39-.13-.47-.25-.94-.35-1.41-.11-.48-.2-.95-.29-1.43-.08-.47-.15-.95-.21-1.43-.88-7.29 1.47-15 6.06-20.7 5.23-6.49 13.05-9.96 21.22-10.83z" fill="url(#b)" opacity=".3"/><path d="m63.381 2630.81c-4.4969-2.06-8.2938-4.84-12.208-7.83 12.0757 3.43 25.1488 4.42 36.7646-1.2 9.1052-4.41 16.0294-12.68 19.2304-22.23 3.401-10.14 1.89-21.24-2.894-30.69-7.3852-14.58-16.6251-17.88-31.3708-22.68 4.1905-1.09 8.1647-1.57 12.4832-1.78 5.8131-.13 12.0031.94 17.3916 3.13.68.28 1.353.58 2.019.89.665.32 1.323.64 1.973.99.649.35 1.289.71 1.921 1.08.632.38 1.254.77 1.866 1.18.613.41 1.215.83 1.807 1.27.592.43 1.172.89 1.741 1.35.57.47 1.127.95 1.673 1.44s1.08 1 1.6 1.52c.521.52 1.03 1.05 1.525 1.59.494.55.975 1.1 1.443 1.67.467.57.92 1.15 1.36 1.74.438.59.863 1.19 1.272 1.8.41.61.804 1.23 1.183 1.86.378.63.742 1.27 1.09 1.92.347.65.678 1.31.993 1.97.316.67.614 1.34.896 2.02.299.72.578 1.45.84 2.19s.506 1.48.731 2.23c.226.75.432 1.51.621 2.27.187.76.357 1.52.508 2.29.15.77.282 1.54.394 2.32s.206 1.55.28 2.33c.075.78.13 1.56.166 2.35.036.78.053 1.56.05 2.34-.002.79-.024 1.57-.065 2.35-.041.79-.102 1.57-.181 2.35s-.178 1.55-.296 2.33c-.118.77-.255 1.54-.41 2.31-.156.77-.33 1.53-.523 2.29s-.405 1.51-.636 2.26c-.23.75-.478 1.49-.745 2.23s-.551 1.47-.854 2.19c-4.626 10.94-14.121 19.88-25.14 24.2-12.5561 4.91-26.336 3.51-38.499-1.84z" fill="url(#c)" opacity=".3"/><g opacity=".3"><path d="m1264.26 2587.35c.87.04 1.8.14 2.61.48 1.38.59 2.51 1.71 2.98 3.16.55 1.69.23 3.56-.66 5.07-1.07 1.83-2.58 2.47-4.54 3.03-.85-.07-1.76-.15-2.54-.52-1.38-.64-2.53-1.9-3.01-3.34-.54-1.65-.28-3.45.59-4.94 1.07-1.84 2.59-2.41 4.57-2.94z" fill="#b1995a"/><path d="m1242.38 2560.79c.51.37.42.22.7.68 4.13 6.75 5.11 7.2 11.73 11.21-5.91 2.12-8.75 5.43-11.95 10.63l-.31.35c-1.25-.62-2.68-4.74-3.92-6.04-2.03-2.14-5.06-3.38-7.63-4.8 7.91-5.55 6.5-3 11.38-12.03z" fill="#b1995a"/><path d="m1242.56 2566.05c.44.28.31.13.57.52 1.61 2.36 3.69 4.13 6 5.78-3.16 2-4.55 3.72-6.18 7.03-1.3-.81-2.45-3.65-3.24-5.06l-3.25-1.78c2.99-1.83 4.38-3.49 6.1-6.49z" fill="#5a2825"/><path d="m1263.54 2532c1.52-.01 2.93.13 4.33.78 2.17 1.01 3.8 2.78 4.54 5.06.64 1.98.5 4.21-.47 6.05-1.39 2.65-3.58 3.69-6.29 4.62-1.57-.07-3.04-.26-4.47-.96-2.15-1.06-3.77-2.92-4.43-5.23-.07-.25-.13-.51-.17-.76-.05-.26-.08-.52-.1-.79-.03-.26-.03-.52-.03-.78.01-.27.02-.53.05-.79s.07-.52.13-.78c.06-.25.12-.51.2-.76s.18-.49.28-.74c.1-.24.22-.47.35-.7 1.36-2.44 3.46-3.53 6.08-4.22z" fill="#b1995a"/><path d="m1288.34 2556.37c.65.6 3.55 10.19 4.39 11.99 3.45 1.23 7 2.19 10.51 3.22-3.67 1.13-7.2 2.21-10.57 4.08-1.97 3.28-2.2 8.92-4.15 11.24-.74-3.02-1.34-6.33-2.96-9.02-2.61-4.35-7.76-4.99-12.27-6.08 3.02-1.06 6.39-1.73 9.23-3.22 4.33-2.27 4.63-7.98 5.82-12.21z" fill="#b1995a"/><path d="m1288.51 2566.05c2.27 2.17 1.57 3.59 4.98 5.69-2.08 1.41-3.48 3.15-5.18 4.95-1.66-2.05-3.4-3.36-5.63-4.71 2.67-1.55 4.07-3.47 5.83-5.93z" fill="#5a2825"/></g><path d="m1602.11 2018c2.35 2.87 2.3 11.31 2.31 14.8 2.97.03 5.99.06 8.92.6 1.13.21 2.33.39 3.01 1.37-.06.09-.11.19-.19.28-1.78 1.96-8.71 2.17-11.44 2.47-.25 4.11-.16 8.87-2.11 12.59-.3-.17-.53-.28-.77-.55-1.5-1.66-1.77-9.7-1.97-12.07-3.12-.19-8.14-.21-10.93-1.71-.63-.34-.72-.37-.94-1.07.06-.09.1-.18.17-.26 1.83-1.99 9.07-1.56 11.73-1.63.03-4.66-.06-10.59 2.21-14.82z" fill="#b1995a" opacity=".3"/><path d="m445.11 3086c2.351 2.87 2.305 11.31 2.309 14.8 2.973.03 5.992.06 8.924.6 1.13.21 2.33.39 3.011 1.37-.063.09-.114.19-.19.28-1.787 1.96-8.719 2.17-11.439 2.47-.251 4.11-.165 8.87-2.112 12.59-.304-.17-.529-.28-.777-.55-1.498-1.66-1.768-9.7-1.967-12.07-3.124-.19-8.139-.21-10.929-1.71-.635-.34-.719-.37-.94-1.07.058-.09.104-.18.174-.26 1.825-1.99 9.062-1.56 11.731-1.63.023-4.66-.069-10.59 2.205-14.82z" fill="#b1995a" opacity=".3"/><g opacity=".3"><path d="m1562.89 2143.08c23.03-.85 43.6 5.38 61.65 19.94 17.54 14.15 29.95 38.51 32.24 60.78.08.75.15 1.5.22 2.24.07.75.12 1.5.17 2.25s.09 1.5.11 2.25c.03.75.05 1.5.06 2.25s.01 1.5 0 2.25c0 .75-.02 1.5-.05 2.25s-.06 1.5-.11 2.25c-.04.75-.1 1.5-.16 2.24-.06.75-.14 1.5-.22 2.24-.08.75-.17 1.49-.28 2.24-.1.74-.21 1.48-.33 2.23-.11.74-.24 1.48-.38 2.21-.14.74-.28 1.48-.44 2.21-.16.74-.32 1.47-.49 2.2-.18.73-.36 1.46-.55 2.18-.19.73-.39 1.45-.6 2.17s-.43 1.44-.66 2.15c-.23.72-.46 1.43-.71 2.14-.24.71-.5 1.42-.76 2.12s-.53 1.4-.81 2.1-.57 1.39-.87 2.08c-.29.69-.6 1.37-.91 2.06-.32.68-.64 1.36-.97 2.03s-.67 1.34-1.01 2.01c-.35.66-.71 1.33-1.07 1.98-.36.66-.73 1.31-1.11 1.96s-.77 1.29-1.17 1.93c-.39.63-.79 1.27-1.21 1.9-.41.62-.82 1.25-1.25 1.86-.43.62-.86 1.23-1.3 1.84s-.89 1.21-1.35 1.8c-.46.6-.92 1.19-1.39 1.78-16.94 20.63-37.62 31.66-64.19 34.35-25.45.84-46.98-7.39-65.84-24.38-16.29-14.66-27.94-38.3-29.01-60.31-1.26-25.83 5.9-49.4 23.52-68.76 15.46-16.99 38.27-27.93 61.23-29.02z" fill="#5f252f"/><path d="m1488.17 2233.55c-.21-.18-.37-.47-.53-.7.03-12.12 3.5-24.96 8.91-35.72 9.4-18.71 26.57-33.77 46.5-40.3 3.98-1.3 20.9-5.49 24.21-3.8l.65.03c19.2-1.03 40.3 9.1 54.38 21.65 3.75 3.34 6.75 7.19 9.66 11.25 8.95 12.53 14.68 26.19 15.55 41.69.12 2.02.24 4.07-.01 6.08v.6c.37 2.78-.04 5.96-.39 8.75-1.72 13.61-6.76 27.7-15.11 38.69-2.76 3.63-5.77 7.5-9.02 10.7-12.04 11.85-29.74 20.32-46.4 22.49-3.03.4-6.07.65-9.12.77l-.55-.5c-.29.18-.35.24-.69.32-2.05.46-5.29-.18-7.37-.47-13.29-1.82-25.07-6.55-36.13-14.14-17.31-11.85-29.7-31.69-33.52-52.24-.64-3.46-2.85-11.89-.93-14.69z" fill="#b1995a"/><g fill="#5a2825"><path d="m1548.24 2222.98c-.21 1.63-.91 4.38-2.05 5.61l-.51.01-.75-1.32-2.01-3.53z"/><path d="m1579.44 2251.93c.45 1.11-1.04 4.13-1.52 5.37l-2.5-1.17-3.01-1.6c2.36-.79 4.69-1.73 7.03-2.6z"/><path d="m1586.05 2222.54c1.58.28 3.85.48 5.03 1.54.17 1.2-.74 2.41-1.32 3.44-.22.41-.46.67-.78 1.01l-.59-.27c-1.14-1.67-1.68-3.82-2.34-5.72z"/><path d="m1577.79 2210.77c1.06.68 1.66 4.33 1.99 5.58l-3.66-1.43-3.58-1.59z"/><path d="m1555.09 2251.6c2.42.77 5.15 1.45 7.36 2.72l-.97.63c-1.7.53-3.35 1.27-5 1.92-.58-1.71-.96-3.52-1.39-5.27z"/><path d="m1588.96 2238.3c1.1 1.39 2.35 3.26 2.53 5.04-.52.96-1.06.9-2.07 1.24-.68.18-1.36.36-2.05.54l-.56-.34c-.29-1.92 1.39-4.69 2.15-6.48z"/><path d="m1546.05 2238.27c1.21 1.36 2.15 4.51 2.12 6.3l-.44.4-1.66-.25-3.31-1.03c1.23-1.73 2.24-3.58 3.29-5.42z"/><path d="m1556 2210.11c1.64.7 4.67 1.56 5.65 3.04l-.25.61-1.91.75c-1.6.64-3.28 1.12-4.92 1.65.54-2 .98-4.03 1.43-6.05z"/><path d="m1523.96 2192.05c3.77 1.82 7.26 4.2 10.81 6.39 5.79 3.56 11.73 7.15 17.76 10.27-1.07 2.89-1.7 5.91-2.79 8.81-2.63 1.28-6.26 1.74-9.12 2.59-4.39-9.92-11.22-18.72-16.66-28.06z"/><path d="m1594.06 2247.47c1.6 1.69 5.09 9.12 6.59 11.63 3.35 5.63 6.98 11.01 10.82 16.31-2.81-1.17-5.47-2.76-8.14-4.23-6.88-4.44-14.27-8.46-21.56-12.2 1.25-2.74 2.15-5.75 3.24-8.57 2.87-1.29 6.03-2.05 9.05-2.94z"/><path d="m1610.81 2191.39c-.1.79-15.13 25.72-16.87 28.94-3.01-.99-6.09-1.81-9.14-2.69l-2.91-9.26c8.61-4.13 21.6-11.29 28.92-16.99z"/><path d="m1540.55 2247.58c2.92.78 5.86 1.48 8.8 2.21 1.43 3.06 2.37 6.23 3.36 9.44-6.82 4.09-14 7.48-20.78 11.73-2.76 1.61-5.51 3.16-8.39 4.56 6.38-8.87 11.19-18.74 17.01-27.94z"/><path d="m1595.64 2225.42c4.42.83 8.75 2.36 13.1 3.55 6.65 1.76 13.33 3.43 20.03 4.98-3.33 1.47-7.23 2.13-10.76 3.01-7.37 1.94-14.79 3.66-22.08 5.88-1.84-2.95-3.73-5.87-5.3-8.97 1.88-2.72 3.46-5.55 5.01-8.45z"/><path d="m1538.73 2225.32.33.04c2.08 2.53 3.51 5.98 5.27 8.77-1.83 2.74-3.51 5.46-5.06 8.37-7.4-1.85-14.79-3.75-22.16-5.69-4.25-1.17-8.64-1.89-12.83-3.24 11.67-2.07 22.97-5.39 34.45-8.25z"/><path d="m1566.61 2256.33c2.6-.18 7.82 3.53 10.2 4.85-3.28 11.85-6.16 23.81-9.38 35.68l-.2.14c-1.19-3.21-1.61-6.88-2.51-10.2-2.32-8.63-4.84-17.19-7.13-25.83 3.07-1.46 6.1-2.91 9.02-4.64z"/><path d="m1567.25 2169.86c1.39 2.39 3.3 13.07 4.17 16.44 1.78 6.81 3.64 13.59 5.58 20.36-3.23 1.63-6.36 3.5-9.51 5.28-3.25-1.94-6.52-3.84-9.8-5.72 1.32-6.41 3.5-12.68 5.28-18.99 1.63-5.73 2.91-11.58 4.28-17.37z"/><path d="m1567.83 2215.95c2.88-.13 10.15 3.46 13.07 4.62 1.96 4.69 3.79 9.42 5.83 14.07-2.02 4-3.7 8.08-5.36 12.24-4.47 1.95-9.03 3.68-13.67 5.18-4.76-1.48-9.41-3.2-14.12-4.85-1.26-4.6-3.2-9.19-4.9-13.66 1.61-4.24 3.41-8.39 4.85-12.7 4.53-2.08 9.55-3.39 14.3-4.9z"/><path d="m1488.17 2233.55c-.21-.18-.37-.47-.53-.7.04-12.12 3.5-24.96 8.91-35.72 9.4-18.71 26.58-33.77 46.5-40.3 3.99-1.3 20.91-5.49 24.21-3.8-3.17 10.71-5.78 21.57-8.54 32.39-1.59 6.24-3.61 12.62-4.75 18.94-7.19-4.34-14.48-8.46-21.6-12.93-7.69-4.82-15.34-10.11-23.4-14.27 3.25 4.31 5.98 9.01 8.82 13.59l11.83 18.93c2.32 3.7 4.55 8.11 7.5 11.3-4.8 1.76-9.9 2.79-14.86 3.99l-22.54 5.48c-3.72.93-8.02 1.65-11.55 3.1z"/><path d="m1488.26 2234.01c10.21 2.55 20.4 5.18 30.58 7.88 5.89 1.52 11.86 2.88 17.7 4.59-5.92 9.66-11.73 19.42-17.86 28.95-2.94 4.58-6.68 8.84-9.06 13.74 4.85-2.16 9.49-5.58 14.05-8.33 9.97-6.02 19.94-12.21 30.34-17.45 1.45 8.12 4.06 16.3 6.05 24.34 2.24 9.09 4.02 18.6 6.84 27.5-.29.18-.35.24-.69.32-2.05.46-5.29-.18-7.37-.47-13.29-1.82-25.07-6.55-36.13-14.14-17.31-11.85-29.7-31.69-33.52-52.24-.64-3.46-2.85-11.89-.93-14.69z"/><path d="m1647.49 2234.33c.37 2.78-.03 5.96-.39 8.75-1.71 13.61-6.76 27.7-15.11 38.69-2.76 3.63-5.77 7.5-9.02 10.7-12.04 11.85-29.74 20.32-46.4 22.49-3.03.4-6.07.65-9.12.77 1.01-4.8 2.53-9.52 3.77-14.27l5.66-22.67c1.34-5.17 2.86-10.34 3.76-15.61 5.05 3.35 10.79 6.01 16.05 9.06 9.68 5.61 19.21 11.53 28.82 17.27l-27.45-43.27c16.53-3.73 33.01-7.7 49.43-11.91z"/><path d="m1567.91 2153.06c19.2-1.03 40.3 9.1 54.38 21.65 3.75 3.34 6.75 7.19 9.66 11.25 8.95 12.53 14.68 26.19 15.55 41.69.12 2.02.24 4.07-.01 6.08-10.38-1.66-20.87-4.86-31.06-7.48-6.17-1.58-12.59-2.7-18.62-4.72 5.88-9.32 11.51-18.73 17.22-28.15 3.23-5.34 6.8-10.57 9.65-16.12-7.99 5.41-16.26 10.65-24.56 15.59-6.47 3.84-13.19 7.49-19.44 11.69-4.73-17.06-8.19-34.41-12.77-51.48z"/></g></g><g opacity=".3"><g fill="#b1995a"><path d="m1330.72 2077.12c1.33-.13 2.65-.23 3.96.1 1.72.43 3.27 1.75 4.08 3.31.73 1.4.9 3.13.38 4.62-.75 2.17-2.17 3.28-4.19 4.2-1.18.2-2.47.22-3.64-.06-1.6-.37-3.05-1.29-3.91-2.71-.87-1.41-1.03-3.08-.65-4.68.56-2.34 2.02-3.55 3.97-4.78z"/><path d="m1328.63 2125.93c1.86-.1 3.57-.18 5.36.47 2.2.81 4.02 2.42 4.94 4.6.89 2.11.88 4.6-.06 6.68-1.11 2.44-3.21 3.81-5.62 4.76-1.88.35-3.55.52-5.39-.18-2.07-.79-3.64-2.41-4.49-4.44-.94-2.21-.98-4.84-.05-7.07 1.06-2.51 2.89-3.77 5.31-4.82z"/><path d="m1352.84 2096.27c4.41 4.08 5.86 8.82 11.65 11.88-4.17 3.51-8.51 6.81-11.23 11.62-1.9-1.28-3.68-4.25-5.3-6.01-1.88-2.04-3.94-3.85-6.05-5.66 4.77-3.3 8.14-6.72 10.93-11.83z"/></g><path d="m1352.84 2103.5c2.05.79 3.73 3.05 5.08 4.74l-4.72 4.59c-1.63-.92-3.63-3.4-4.82-4.93 1.68-1.35 3.06-2.76 4.46-4.4z" fill="#5a2825"/><path d="m1309.96 2096.97c4.14 4.38 6.4 7.9 11.77 11.17-1.62 1.27-3.53 3.28-5.27 4.27-2.22 2.51-4.33 5-6.36 7.69-3.5-5.04-6.87-8.44-12.1-11.68 2.93-2.42 5.97-4.51 8.57-7.32z" fill="#b1995a"/><path d="m1309.34 2103.92c1.86.4 4.06 3.45 5.3 4.82l-4.38 3.85c-1.61-.35-3.74-3.1-4.84-4.27z" fill="#5a2825"/></g><g opacity=".3"><g fill="#b1995a"><path d="m982.722 56.1197c1.332-.1273 2.644-.2262 3.958.1031 1.717.4303 3.273 1.7483 4.084 3.3077.728 1.3983.892 3.1279.374 4.6237-.749 2.162-2.171 3.2807-4.185 4.1988-1.184.1986-2.472.2138-3.648-.0622-1.596-.3757-3.041-1.2945-3.905-2.708-.866-1.4176-1.035-3.0842-.651-4.6838.561-2.3405 2.021-3.5478 3.973-4.7793z"/><path d="m980.635 104.927c1.851-.1 3.57-.18 5.35.473 2.205.811 4.026 2.424 4.945 4.603.888 2.102.885 4.596-.06 6.679-1.107 2.44-3.212 3.804-5.616 4.76-1.888.348-3.554.516-5.391-.183-2.07-.787-3.644-2.405-4.497-4.434-.931-2.214-.972-4.85-.042-7.07 1.053-2.518 2.889-3.771 5.311-4.828z"/><path d="m1004.84 75.2667c4.41 4.0833 5.86 8.8211 11.65 11.8791-4.17 3.5153-8.51 6.8162-11.23 11.6266-1.9-1.282-3.68-4.2556-5.297-6.0094-1.886-2.0458-3.946-3.8571-6.057-5.6649 4.776-3.2932 8.144-6.7227 10.934-11.8314z"/></g><path d="m1004.84 82.4973c2.05.7887 3.73 3.0573 5.08 4.7405l-4.72 4.5926c-1.63-.9244-3.63-3.4019-4.82-4.9302 1.68-1.3546 3.06-2.7646 4.46-4.4029z" fill="#5a2825"/><path d="m961.958 75.9668c4.146 4.3863 6.404 7.9017 11.771 11.17-1.616 1.2688-3.532 3.2876-5.264 4.2721-2.23 2.5115-4.337 5.0056-6.362 7.6921-3.507-5.0381-6.877-8.44-12.103-11.682 2.929-2.4221 5.967-4.5095 8.567-7.3156z" fill="#b1995a"/><path d="m961.335 82.9233c1.864.3992 4.063 3.4482 5.302 4.8146l-4.375 3.8488c-1.61-.3432-3.738-3.0975-4.844-4.2646z" fill="#5a2825"/></g><g opacity=".3"><g fill="#b1995a"><path d="m1016.72 2917.12c1.33-.13 2.65-.23 3.96.1 1.72.43 3.27 1.75 4.08 3.31.73 1.4.9 3.13.38 4.62-.75 2.17-2.17 3.28-4.19 4.2-1.18.2-2.47.22-3.64-.06-1.6-.37-3.05-1.29-3.91-2.71-.87-1.41-1.03-3.08-.65-4.68.56-2.34 2.02-3.55 3.97-4.78z"/><path d="m1014.63 2965.93c1.86-.1 3.57-.18 5.36.47 2.2.81 4.02 2.42 4.94 4.6.89 2.11.88 4.6-.06 6.68-1.11 2.44-3.21 3.81-5.62 4.76-1.88.35-3.55.52-5.39-.18-2.07-.79-3.64-2.41-4.49-4.44-.94-2.21-.98-4.84-.05-7.07 1.06-2.51 2.89-3.77 5.31-4.82z"/><path d="m1038.84 2936.27c4.41 4.08 5.86 8.82 11.65 11.88-4.17 3.51-8.51 6.81-11.23 11.62-1.9-1.28-3.68-4.25-5.3-6.01-1.88-2.04-3.94-3.85-6.05-5.66 4.77-3.3 8.14-6.72 10.93-11.83z"/></g><path d="m1038.84 2943.5c2.05.79 3.73 3.05 5.08 4.74l-4.72 4.59c-1.63-.92-3.63-3.4-4.82-4.93 1.68-1.35 3.06-2.76 4.46-4.4z" fill="#5a2825"/><path d="m995.958 2936.97c4.142 4.38 6.402 7.9 11.772 11.17-1.62 1.27-3.53 3.28-5.27 4.27-2.22 2.51-4.332 5-6.357 7.69-3.507-5.04-6.877-8.44-12.103-11.68 2.929-2.42 5.967-4.51 8.567-7.32z" fill="#b1995a"/><path d="m995.335 2943.92c1.864.4 4.063 3.45 5.305 4.82l-4.378 3.85c-1.61-.35-3.738-3.1-4.844-4.27z" fill="#5a2825"/></g><g opacity=".3"><g fill="#b1995a"><path d="m1535.9 1245.99c-.1-1.01-.26-1.37.22-2.29.54-.11.72-.06 1.22.22 1.19.66 2.36 1.76 3.45 2.6l-.12.38-.03-.19c-1.23 1.1-2.42 2.16-3.81 3.06-.82-.27-1.2-.98-1.68-1.65.55-.87.77-1.06.75-2.13z"/><path d="m1524.83 1235.71.23-.48c.53-1.11.98-1.99 1.01-3.25-.35-.67-.76-1.16-1.26-1.73.57-1.07 2.12-1.62 3.22-1.96.69-.22 1.25-.32 1.98-.28l.39.44-.43.8.24.24c.6.6 1.03.97 1.2 1.84-.36.87-.71 1.27-1.59 1.68-2.77 1.32-2.4.16-4.09 3.11z"/><path d="m1523.52 1255.85c.27-.76.42-.82 1.08-1.32 2.11 3.57 3.93 3.46 6.38 6.17-.48 1.15-.75 2.49-1.89 3.15-.6.35-1.83.47-2.46.21-.87-.36-1.34-1.05-1.65-1.92-.31-.9.11-1.76.43-2.6-.12-1.37-1.14-2.57-1.89-3.69z"/><path d="m1514.74 1242.71c-1.76-2.68-3.26-6.96-5.75-8.92-1.61-.19-2.1-.22-3.16-1.46.13-1.33.43-2.46.87-3.73.59-.24.73-.38 1.4-.3 1.27.16 2.85.97 3.65 1.96-.27.64-.64 1.37-.78 2.05-.45 2.12 3.79 7.64 4.96 9.47-.41.41-.65.69-1.19.93z"/><path d="m1514.22 1250.9c.96-.08 1.21-.22 2.03.26-1.64 2.83-3.72 5.47-5.47 8.25.56.84 1.01 1.56 1.31 2.54-.42.69-.22.5-.87 1-1.06.82-2.17.93-3.46.78-.54-.35-.93-.45-1.21-1.06-.5-1.08-.43-2.16-.02-3.25.82-.5 1.21-.43 2.16-.45 2.39-1.94 4.02-5.44 5.53-8.07z"/></g><path d="m1524.84 1235.7.89.42c-1.73 3.17-3.63 6.24-5.49 9.33 3.3.24 6.6.38 9.91.44 1.85.04 3.95-.18 5.76.1.01 1.07-.21 1.26-.76 2.14-1.8-1.42-12.5-.72-15.42-.87 1.68 2.29 3.61 4.72 4.87 7.27-.65.5-.8.56-1.08 1.32-1.67-2.56-3.63-4.98-5.46-7.44-.56.97-1.14 1.86-1.81 2.75-.81-.48-1.06-.34-2.03-.26l2.24-3.56c-5.04-.19-10.12-.42-15.16-.08-.65 1.16-.88 2.04-2.07 2.71-.72-.15-1-.35-1.48-.86-.87-.95-1.81-1.81-2.75-2.68 1.29-1.3 2.82-2.43 4.23-3.6l2.08 2.62c5.01.28 10.1.09 15.12.06l-1.69-2.8c.54-.24.78-.52 1.19-.93.82.65 1.61 2.05 2.26 2.9 2.4-2.85 4.31-6.08 6.65-8.98z" fill="url(#e)"/></g><g opacity=".3"><g fill="#b1995a"><path d="m264.813 1746.89c-.207-1.96-.503-2.66.424-4.45 1.049-.2 1.386-.12 2.364.43 2.303 1.28 4.584 3.42 6.695 5.04l-.238.74-.062-.36c-2.382 2.13-4.689 4.18-7.383 5.93-1.592-.53-2.323-1.9-3.265-3.19 1.074-1.71 1.492-2.07 1.465-4.14z"/><path d="m243.35 1726.94.445-.92c1.022-2.15 1.887-3.87 1.954-6.3-.689-1.3-1.469-2.26-2.448-3.36 1.111-2.08 4.112-3.13 6.256-3.81 1.328-.41 2.42-.61 3.826-.53l.762.85-.842 1.55.472.46c1.157 1.16 1.993 1.89 2.319 3.57-.689 1.7-1.369 2.46-3.072 3.27-5.381 2.55-4.666.3-7.934 6.03z"/><path d="m240.805 1766.01c.527-1.47.815-1.59 2.082-2.56 4.109 6.92 7.638 6.7 12.375 11.96-.917 2.23-1.455 4.82-3.653 6.1-1.167.69-3.554.92-4.774.42-1.697-.69-2.602-2.04-3.193-3.72-.62-1.76.196-3.42.825-5.05-.234-2.66-2.22-4.97-3.662-7.15z"/><path d="m223.766 1740.52c-3.411-5.19-6.315-13.49-11.139-17.3-3.124-.36-4.085-.42-6.135-2.82.259-2.58.844-4.78 1.688-7.23 1.15-.48 1.416-.75 2.709-.58 2.479.31 5.532 1.86 7.09 3.8-.529 1.24-1.241 2.65-1.518 3.96-.868 4.13 7.35 14.83 9.615 18.37-.797.8-1.259 1.35-2.31 1.8z"/><path d="m222.772 1756.42c1.865-.17 2.348-.43 3.938.5-3.188 5.48-7.222 10.6-10.61 15.98 1.079 1.64 1.958 3.04 2.539 4.94-.825 1.33-.437.96-1.689 1.93-2.061 1.59-4.211 1.81-6.703 1.52-1.052-.67-1.804-.88-2.35-2.06-.965-2.09-.841-4.18-.049-6.3 1.605-.97 2.351-.83 4.194-.87 4.633-3.76 7.791-10.55 10.73-15.64z"/></g><path d="m243.354 1726.94 1.737.81c-3.369 6.13-7.043 12.1-10.652 18.1 6.399.45 12.807.73 19.222.85 3.587.07 7.65-.36 11.158.19.027 2.07-.39 2.43-1.465 4.14-3.49-2.76-24.248-1.39-29.9-1.67 3.263 4.44 6.994 9.14 9.438 14.09-1.266.97-1.555 1.09-2.082 2.56-3.253-4.97-7.044-9.67-10.601-14.43-1.079 1.88-2.21 3.6-3.497 5.34-1.589-.93-2.072-.67-3.937-.5l4.343-6.92c-9.78-.37-19.624-.81-29.398-.16-1.265 2.25-1.717 3.97-4.022 5.26-1.389-.28-1.939-.67-2.867-1.67-1.695-1.83-3.509-3.5-5.337-5.2 2.496-2.52 5.461-4.71 8.194-6.98l4.047 5.09c9.719.54 19.579.18 29.316.11l-3.282-5.43c1.051-.45 1.514-1 2.311-1.8 1.594 1.26 3.128 3.97 4.391 5.63 4.644-5.54 8.344-11.79 12.883-17.41z" fill="url(#f)"/></g><path d="m1262.73 1201c2.88 4.42 7.81 18.21 9.69 23.68 7.65-.25 15.3-.28 22.96-.08-5.35 5.54-11.54 9.7-17.07 14.93 1.26 8.22 4.79 16.11 6.66 24.22-3.95-1.74-20.16-12.42-21.74-12.41-7.63 3.42-14.68 8.61-21.99 12.69 1.48-8.09 4.86-15.88 6.87-23.87-6.14-5.2-12.3-10.23-18.11-15.81 7.91-.22 15.87-.05 23.79-.04 2.78-7.86 5.84-15.58 8.94-23.31z" fill="#886846" opacity=".3"/><g fill="#b1995a"><path d="m1262.04 1507.43c-.04-21.93 2.46-19.43 2.72-.17 4.93-1.59 8.75-2.82 14.02-2.78-3.85 2.92-8.17 5.43-12.21 8.1.35 7.65.62 15.3.81 22.96 3.47-.18 13.78.43 16.31-.74 1.43-.66 2.77-2.12 3.97-3.16 2.03-1.76 4.16-3.96 6.66-5.02l.4.26c-.47 3.78-7.14 8.68-7.38 12.17 2.21 3.85 5.13 7.43 7.04 11.41-3.89-2.37-6.95-5.4-10.52-8.17-3.81-2.63-11.81-1.25-16.32-1.05.04 6.95-.5 13.97-.86 20.91-.68 13.25-1.49 26.43-3.37 39.57-1.01-10.88-1.81-21.78-2.41-32.69-.6-9.28-1.39-18.62-1.33-27.93-5.05.06-10.11.01-15.16 0-3.48 2.55-6.69 6.63-10.62 8.37l-.33-.34c.52-3.7 4.48-7.03 6.01-10.5.05-.11.09-.23.14-.34-2.75-4.2-6.12-8.12-8.37-12.62 4.46 2.34 8.37 6.06 12.25 9.27 5.31.16 10.62.22 15.94.17.39-7.46 1.14-14.88 1.4-22.34-2.19-1.31-10.65-5.68-11.55-7.68l.41-.35c3.62-.61 9.24.8 12.35 2.69z" opacity=".3"/><path d="m1610.8 2991.54c-.04-21.93 2.46-19.43 2.73-.17 4.92-1.59 8.75-2.82 14.01-2.78-3.85 2.93-8.17 5.44-12.21 8.1.35 7.65.62 15.31.81 22.96 3.47-.18 13.78.43 16.31-.73 1.43-.66 2.77-2.12 3.97-3.16 2.03-1.77 4.16-3.97 6.66-5.03l.4.26c-.46 3.78-7.14 8.68-7.38 12.17 2.21 3.85 5.13 7.44 7.05 11.41-3.9-2.37-6.96-5.39-10.53-8.16-3.81-2.63-11.81-1.26-16.32-1.05.04 6.94-.5 13.96-.86 20.9-.68 13.25-1.49 26.43-3.37 39.58-1-10.89-1.81-21.78-2.41-32.69-.6-9.28-1.39-18.63-1.33-27.93-5.05.05-10.11 0-15.16-.01-3.48 2.55-6.69 6.64-10.62 8.38l-.33-.35c.53-3.7 4.48-7.02 6.01-10.5.05-.11.1-.23.14-.34-2.75-4.2-6.12-8.12-8.37-12.62 4.46 2.35 8.37 6.07 12.25 9.27 5.31.16 10.62.22 15.94.17.4-7.45 1.14-14.87 1.4-22.34-2.19-1.31-10.64-5.68-11.55-7.67l.42-.35c3.62-.61 9.23.79 12.34 2.68z" opacity=".3"/><path d="m1582.63 1127c2.01 2.21 3.42 7.4 4.04 10.34 3.8-.58 7.64-.97 11.45-1.44-2.22 2.99-4.93 5.74-7.43 8.5 2.94 2.32 5.23 5.74 7.52 8.67-3.74-.39-7.48-1.01-11.2-1.56v.63l-.41.17.23.38c-.7 2.45-1.83 4.81-2.83 7.15l-.53 1.1c-2.08-1.26-3.73-7.11-4.5-9.45-3.64.52-7.28 1.07-10.92 1.65 1.95-3.25 4.41-5.91 7.01-8.65-2.6-2.73-5.2-5.35-7.06-8.65 3.71.65 7.44 1.11 11.19 1.37 1.04-3.44 2.19-6.84 3.44-10.21z" opacity=".3"/><path d="m774.629 2766c2.011 2.21 3.424 7.4 4.04 10.34 3.797-.58 7.639-.97 11.454-1.44-2.223 2.99-4.934 5.74-7.43 8.5 2.936 2.32 5.225 5.74 7.522 8.67-3.748-.39-7.481-1.01-11.208-1.56v.63l-.405.17.233.38c-.703 2.45-1.836 4.81-2.836 7.15l-.526 1.1c-2.086-1.26-3.732-7.11-4.504-9.45-3.644.52-7.282 1.07-10.916 1.65 1.95-3.25 4.409-5.91 7.005-8.65-2.594-2.73-5.202-5.35-7.058-8.65 3.706.65 7.436 1.11 11.19 1.37 1.04-3.44 2.186-6.84 3.439-10.21z" opacity=".3"/></g><g opacity=".4"><path d="m1568.05 89.2755c.2 1.8611.98 4.1782 2.06 5.7165 2.15 3.0475 5.59 3.7033 9.01 4.3019-2.49.2435-4.91.4856-7.02 1.9681-2.66 1.865-3.39 4.648-3.92 7.679l-.04.274c-.47-.512-.97-3.966-1.83-5.203-2.24-3.232-4.87-4.012-8.54-4.6831 2-.3625 4.08-.9128 5.81-2.0283 2.93-1.892 3.78-4.8097 4.47-8.0251z" fill="#b1995a"/><path d="m1567.74 97.4644c.45.3611.84.8497 1.29 1.2301.16.1342.18.3005.25.4944-.12.6584-.97 1.2671-1.46 1.7051-.18-.027-.35-.073-.53-.113 0-.076 0-.151 0-.226-.04-.523-.65-1.3436-1.05-1.657l.05.1029-.08-.0722.46-.0492c.43-.4023.73-.7435 1-1.2739.02-.0468.04-.0941.07-.1412z" fill="#5a2825"/></g><path d="m1508.56 187c.5 1.845.66 3.915.9 5.811 1.15 9.11 1.18 18.242.94 27.407 3.11-3.085 6.3-6.031 9.52-8.997 1.93-1.775 3.8-3.692 5.89-5.27-1.35 1.979-3.08 3.745-4.67 5.523l-9.03 9.94c6.32-.344 12.7-.167 19.02-.158-.04 1.021 0 2.058.01 3.08-6.57-.015-13.19-.229-19.76-.103 3.26 3.229 6.3 6.743 9.36 10.168 1.54 1.722 3.43 3.441 4.6 5.428-1.98-1.466-3.81-3.288-5.64-4.941-3.1-2.802-6.24-5.565-9.11-8.615-.13 7.341-.19 14.682-.15 22.023-.57-.326-1.08-.53-1.72-.692-.73.158-1.22.465-1.83.858-.27-2.809-.06-5.793-.04-8.622.02-4.505-.03-9.009.03-13.515-3.12 2.83-6.14 5.768-9.24 8.618-1.84 1.692-3.63 3.547-5.8 4.808 1.34-1.683 2.88-3.226 4.31-4.834 3.2-3.607 6.41-7.193 9.65-10.76-6.6.071-13.2.096-19.8.074l.03-2.916c2.28-.155 4.63-.058 6.93-.059 4.05-.043 8.1.004 12.14.14-1.36-1.148-2.49-2.577-3.71-3.873-3.53-3.753-6.99-7.578-10.36-11.477.04.019.08.036.12.055.07.033.13.068.2.101 1.5.727 2.82 2.28 4.03 3.415 2.09 1.974 4.27 3.853 6.36 5.826 1.54 1.453 3.14 3.341 4.91 4.497-.21-9.092-.06-18.1 1.08-27.125.25-1.903.36-3.956.83-5.815z" fill="#b1995a" opacity=".3"/><path d="m163.287 362c.199 1.861.974 4.178 2.058 5.716 2.148 3.048 5.587 3.704 9.011 4.302-2.494.244-4.914.486-7.025 1.968-2.656 1.866-3.391 4.648-3.917 7.68l-.036.274c-.472-.512-.977-3.966-1.834-5.204-2.238-3.232-4.872-4.012-8.544-4.683 2.002-.362 4.089-.912 5.815-2.028 2.926-1.892 3.776-4.81 4.472-8.025z" fill="#b1995a" opacity=".3"/><path d="m139.521 372c.456.361.844.85 1.297 1.23.159.134.175.301.244.495-.12.658-.968 1.266-1.46 1.705-.177-.027-.351-.073-.525-.113-.001-.076.001-.152-.005-.227-.038-.522-.652-1.343-1.046-1.656l.046.102-.072-.072.456-.049c.431-.402.731-.743.997-1.274.023-.047.045-.094.068-.141z" fill="#5a2825"/><path d="m173.641 835c1.061 2.594 1.257 5.381 2.782 7.838 2.425 3.908 6.474 5.127 10.711 6.109-1.603.514-3.208.916-4.768 1.571-4.719 1.981-7.057 5.679-8.203 10.536-.087.37-.162 1.16-.451 1.369-.467-2.018-.87-4.063-1.776-5.941-2.352-4.876-7.249-6.076-11.936-7.693 2.827-.522 5.754-1.262 8.171-2.886 3.786-2.543 4.638-6.691 5.47-10.903z" fill="#b1995a" opacity=".3"/><path d="m46.4297 437c.1532.149.097.072.2035.274 1.0292 1.955 2.2829 3.32 4.106 4.55-1.7365 1.164-3.095 2.647-4.3554 4.298-.5994-1.41-3.0631-3.625-4.3838-4.407 1.759-1.379 3.399-2.695 4.4297-4.715z" fill="#5a2825" opacity=".3"/><path d="m1563.62 393c.21.084.35.178.52.34.93.869 1.4 2.256 1.64 3.476.4 2.1.25 4.374.26 6.508-.01 3.518.02 7.035.1 10.552 2.46-2.002 10.69-10.108 12.99-10.722.31-.083.32-.092.6.079-.72 2.143-9.42 9.959-11.55 12.335 2.76-.116 18.15-.572 19.81.117.22 1.011.02 2.247-.04 3.283-6.67-.011-13.33.125-20-.029 4.17 4.822 8.77 9.064 12.57 14.236-4.6-2.969-10.35-8.455-14.35-12.311.02 3.724-.1 7.437-.13 11.159-.03 3.496.06 7.022-.21 10.509-.29 3.842-.9 7.608-1.57 11.398l-.29 1.792c-.74-4.281-1.41-8.702-1.7-13.036-.47-7.261-.19-14.661-.2-21.938-2.28 2.792-11.05 10.327-14.23 12.198 3.65-4.853 8.27-9.65 12.47-14.078-2.31.221-4.69.114-7.01.107l-11.26-.047c-.05-1.067-.03-2.142-.04-3.21 5.67-.349 12.15-.247 17.87-.199-3.8-4.061-8.34-9.229-11.14-14.002 2.78 2.014 5.21 4.54 7.64 6.948 1.91 1.884 3.85 3.728 5.71 5.661.01-6.401-.05-12.858.21-19.25.41-.655.85-1.264 1.33-1.876z" fill="#b1995a" opacity=".3"/><path d="m494.619 2839c.215.08.352.18.525.34.924.87 1.395 2.26 1.631 3.48.408 2.1.251 4.37.261 6.5-.008 3.52.027 7.04.106 10.56 2.459-2.01 10.687-10.11 12.988-10.73.308-.08.323-.09.602.08-.723 2.15-9.419 9.96-11.549 12.34 2.754-.12 18.144-.57 19.809.12.219 1.01.02 2.24-.04 3.28-6.67-.01-13.332.12-20.001-.03 4.166 4.82 8.773 9.06 12.566 14.23-4.594-2.96-10.35-8.45-14.345-12.31.022 3.73-.103 7.44-.132 11.16-.027 3.5.059 7.02-.208 10.51-.294 3.84-.902 7.61-1.571 11.4l-.289 1.79c-.747-4.28-1.413-8.7-1.697-13.03-.477-7.27-.197-14.66-.201-21.94-2.288 2.79-11.053 10.32-14.239 12.2 3.659-4.86 8.278-9.65 12.472-14.08-2.306.22-4.691.11-7.007.11l-11.259-.05c-.047-1.07-.032-2.14-.041-3.21 5.675-.35 12.15-.25 17.867-.2-3.793-4.06-8.34-9.23-11.139-14 2.785 2.01 5.208 4.54 7.646 6.95 1.908 1.88 3.85 3.72 5.71 5.66.01-6.4-.051-12.86.203-19.25.416-.66.857-1.27 1.332-1.88z" fill="#b1995a" opacity=".3"/><path d="m205.619 545c.215.084.352.178.525.34.924.869 1.395 2.256 1.631 3.476.408 2.1.251 4.374.261 6.508-.008 3.518.027 7.035.106 10.552 2.459-2.002 10.687-10.108 12.988-10.722.308-.083.323-.092.602.079-.723 2.143-9.419 9.959-11.549 12.335 2.754-.116 18.144-.572 19.809.117.219 1.011.02 2.247-.04 3.283-6.67-.011-13.332.125-20.001-.029 4.166 4.822 8.773 9.064 12.566 14.236-4.594-2.969-10.35-8.455-14.345-12.311.022 3.724-.103 7.437-.132 11.159-.027 3.496.059 7.022-.208 10.509-.294 3.842-.902 7.608-1.571 11.398l-.289 1.792c-.747-4.281-1.413-8.702-1.697-13.036-.477-7.261-.197-14.661-.201-21.938-2.288 2.792-11.053 10.327-14.239 12.198 3.659-4.853 8.278-9.65 12.472-14.078-2.306.221-4.691.114-7.007.107l-11.259-.047c-.047-1.067-.032-2.142-.041-3.21 5.675-.349 12.15-.247 17.867-.199-3.793-4.061-8.34-9.229-11.139-14.002 2.785 2.014 5.208 4.54 7.646 6.948 1.908 1.884 3.85 3.728 5.71 5.661.01-6.401-.051-12.858.203-19.25.416-.655.857-1.264 1.332-1.876z" fill="#b1995a" opacity=".3"/><g opacity=".3"><g fill="#b1995a"><path d="m68.902 748.994c-.1066-1.012-.2595-1.373.2186-2.295.541-.106.7147-.062 1.2191.219 1.1879.663 2.364 1.763 3.4523 2.598l-.1225.385-.0318-.188c-1.2287 1.101-2.418 2.154-3.8072 3.056-.8213-.269-1.1983-.977-1.684-1.644.5542-.878.7693-1.065.7555-2.131z"/><path d="m57.8342 738.705.229-.475c.5272-1.108.9734-1.995 1.008-3.248-.3556-.671-.7576-1.166-1.2626-1.732.5728-1.073 2.1205-1.616 3.2261-1.964.6849-.216 1.2481-.319 1.9732-.276l.3929.44-.4344.796.2435.241c.5964.598 1.0274.974 1.1955 1.839-.3549.876-.7057 1.27-1.5836 1.686-2.7751 1.316-2.4063.155-4.0917 3.109z"/><path d="m56.5215 758.852c.2719-.761.4206-.822 1.0737-1.319 2.1192 3.565 3.9388 3.454 6.3817 6.164-.4732 1.154-.7507 2.488-1.8839 3.15-.6019.351-1.8327.472-2.4616.215-.8752-.357-1.3422-1.053-1.6466-1.919-.3197-.908.101-1.764.4254-2.605-.121-1.371-1.145-2.565-1.8887-3.686z"/><path d="m47.7356 745.708c-1.759-2.676-3.2566-6.959-5.7441-8.921-1.611-.185-2.1064-.219-3.1634-1.455.1333-1.331.4353-2.466.8705-3.73.5928-.245.7303-.384 1.3969-.3 1.2783.162 2.8525.964 3.6561 1.962-.273.639-.6399 1.365-.7827 2.043-.4479 2.127 3.7897 7.644 4.9581 9.474-.4111.412-.6493.694-1.1914.927z"/><path d="m47.2228 753.905c.9615-.089 1.2105-.221 2.0302.259-1.6436 2.826-3.7238 5.464-5.4709 8.242.5563.844 1.0094 1.564 1.3091 2.545-.4256.686-.2251.497-.871.995-1.0628.822-2.1711.934-3.4566.783-.5424-.345-.9301-.452-1.2117-1.063-.4978-1.077-.4338-2.155-.0254-3.249.8279-.5 1.2125-.425 2.1632-.444 2.389-1.94 4.0174-5.443 5.5331-8.068z"/></g><path d="m57.8364 738.705.8959.416c-1.7372 3.164-3.6322 6.24-5.4933 9.332 3.3002.232 6.6042.378 9.9122.439 1.85.036 3.945-.186 5.7541.102.0139 1.066-.2013 1.253-.7555 2.131-1.7995-1.42-12.5038-.716-15.4186-.861 1.6826 2.29 3.6066 4.715 4.8672 7.269-.6531.497-.8019.558-1.0738 1.319-1.6777-2.562-3.6322-4.987-5.4666-7.441-.5565.967-1.1395 1.857-1.8031 2.753-.8197-.48-1.0687-.348-2.0303-.259l2.2395-3.567c-5.0431-.19-10.1195-.418-15.1594-.082-.6524 1.16-.8856 2.048-2.0742 2.711-.7164-.143-1-.343-1.4784-.859-.8743-.946-1.8095-1.806-2.7521-2.681 1.2868-1.3 2.8159-2.431 4.2255-3.6l2.0867 2.623c5.012.278 10.096.092 15.1172.059l-1.6922-2.8c.5421-.234.7804-.516 1.1915-.928.8222.645 1.6129 2.045 2.2643 2.903 2.3947-2.857 4.3029-6.084 6.6434-8.979z" fill="url(#g)"/></g><path d="m1306.2 189.454c-.02-5.283.01-10.542.32-15.819.08-1.317.03-2.96.37-4.227.09-.353.37-.736.64-.983.29-.271.48-.381.88-.425.43.346.47 1.183.52 1.699.74 6.368.66 13.681.5 20.108 3.02-3.215 6.52-6.011 9.83-8.923 1.06-.934 2.05-2.098 3.16-2.945.28-.212.59-.375.94-.418.05-.007.12-.002.18-.004.05.33-.06.378-.26.631-1.05 1.38-2.31 2.656-3.47 3.953-2.83 3.178-5.7 6.273-8.72 9.272 4.92-.457 9.95-.281 14.89-.223 2.2.025 4.9-.21 7.03.33.97.246 1.78.879 2.54 1.507l-2.15 1.414c-5.04.209-10.09.292-15.15.251-2.33-.032-4.73.032-7.03-.306 2.67 2.932 5.27 5.917 7.91 8.877 1.42 1.587 3.35 3.303 4.39 5.137l-.08.299.07-.312-.11.302.14.008.01-.233-.16.223c-1.46-.728-2.8-2.403-4.03-3.502-3.41-3.059-6.9-5.931-10-9.316.22 3.351.5 19.398-1.21 21.414-.15.187-.25.249-.48.326-.44-.146-.65-.361-.86-.778-.96-1.885-.66-13.369-.64-16.016.01-1.402.25-3.131-.04-4.473-.23-.028-.13-.037-.3.007-.61 1.326-11.75 11.204-13.78 12.602.12-.367.25-.71.48-1.022 1.42-1.882 3.24-3.632 4.83-5.383 2.18-2.405 4.35-5.109 6.78-7.249l.49-.609-.09-.112c-3.06.115-6.11.158-9.16.131-3.06-.027-6.11-.126-9.16-.296s-6.09-.41-9.13-.722-6.07-.695-9.09-1.148c11.46-1.419 25.12-2.146 36.66-1.292-1.35-1.343-12.06-12.947-12.34-14.171.37-.039.95.501 1.24.74 4.46 3.606 8.41 7.821 12.64 11.676z" fill="#b1995a" opacity=".3"/><g clip-path="url(#k)" opacity=".3"><g fill="#b1995a"><path d="m1159.25 743.612c1.25-.114 2.37-.162 3.55.349 1.53.666 2.76 1.887 3.36 3.457.54 1.404.5 2.955-.16 4.312-.77 1.569-2.16 2.52-3.76 3.082-1.44.315-2.76.367-4.14-.249-.18-.082-.36-.173-.53-.274s-.34-.21-.5-.329c-.16-.118-.32-.245-.47-.38-.14-.135-.29-.277-.42-.427-.13-.149-.26-.305-.37-.468-.12-.163-.23-.332-.33-.506s-.19-.353-.27-.537-.15-.371-.21-.562c-.49-1.54-.38-3.267.4-4.693.87-1.57 2.17-2.339 3.85-2.775z"/><path d="m1159.94 593.548c1.26-.025 2.32.081 3.47.664.16.085.33.177.48.279.16.1.31.209.46.325.15.117.29.24.42.371.14.131.26.268.38.411.12.144.24.293.34.448.11.155.21.315.29.48.09.165.17.334.25.506.07.174.13.35.19.529.05.191.1.385.14.581s.07.394.09.593.03.398.03.598c-.01.2-.02.4-.04.598-.03.199-.06.396-.1.591-.05.195-.1.387-.16.577-.07.19-.14.376-.22.558-.09.182-.18.359-.28.531-.99 1.728-2.51 2.513-4.37 3.025-1.42.165-2.77-.054-4.01-.789-.15-.094-.31-.196-.46-.305-.14-.11-.29-.226-.42-.35-.14-.124-.27-.254-.39-.39-.13-.137-.25-.279-.35-.427-.11-.148-.22-.302-.31-.46-.1-.158-.18-.321-.26-.488s-.15-.337-.21-.511-.11-.35-.16-.529c-.05-.198-.09-.397-.12-.598s-.05-.404-.06-.607-.01-.406.01-.609c.01-.203.03-.406.06-.606.03-.201.07-.4.12-.597s.11-.391.18-.582.15-.377.24-.56.19-.361.3-.534c1.06-1.676 2.61-2.303 4.47-2.723z"/><path d="m1117.23 780.121c.3 2.714 1.43 6.092 3.01 8.335 3.13 4.444 8.14 5.401 13.14 6.273-3.64.356-7.17.709-10.25 2.87-3.87 2.72-4.94 6.778-5.71 11.198l-.05.4c-.69-.747-1.43-5.784-2.68-7.588-3.26-4.713-7.1-5.85-12.46-6.828 2.92-.529 5.97-1.331 8.48-2.958 4.27-2.759 5.51-7.014 6.52-11.702z"/></g><path d="m1116.77 792.062c.67.526 1.23 1.239 1.9 1.793.23.196.25.439.35.721-.17.961-1.41 1.847-2.13 2.487-.25-.04-.51-.107-.76-.165 0-.11 0-.22-.01-.33-.05-.762-.95-1.959-1.52-2.416l.06.15-.1-.105.66-.072c.63-.586 1.07-1.084 1.46-1.857.03-.069.06-.138.09-.206z" fill="#5a2825"/><path d="m1119.29 536.085c1.55 3.782 1.83 7.846 4.06 11.429 3.53 5.699 9.44 7.477 15.62 8.908-2.34.749-4.68 1.335-6.96 2.291-6.88 2.889-10.29 8.28-11.96 15.364-.12.539-.23 1.691-.65 1.996-.69-2.943-1.27-5.925-2.59-8.664-3.43-7.11-10.57-8.86-17.41-11.217 4.12-.761 8.39-1.84 11.92-4.208 5.52-3.708 6.76-9.757 7.97-15.899z" fill="#b1995a"/><path d="m1119.54 549.726c.23.218.14.106.3.4 1.5 2.851 3.33 4.841 5.99 6.635-2.53 1.697-4.52 3.86-6.35 6.267-.88-2.056-4.47-5.286-6.4-6.426 2.57-2.011 4.96-3.93 6.46-6.876z" fill="#5a2825"/><path d="m1346.89 433c.73 2.69.97 5.71 1.32 8.474 1.68 13.283 1.72 26.6 1.37 39.965 4.53-4.499 9.19-8.795 13.88-13.12 2.81-2.588 5.54-5.384 8.59-7.684-1.96 2.885-4.49 5.46-6.81 8.053l-13.17 14.494c9.22-.501 18.52-.243 27.74-.231-.06 1.489 0 3.002.01 4.493-9.58-.022-19.23-.335-28.81-.151 4.76 4.708 9.19 9.832 13.65 14.827 2.24 2.511 4.99 5.017 6.71 7.915-2.89-2.138-5.55-4.795-8.22-7.205-4.53-4.086-9.11-8.114-13.29-12.562-.2 10.704-.27 21.408-.23 32.114-.83-.475-1.57-.773-2.5-1.01-1.06.231-1.78.679-2.67 1.252-.4-4.096-.08-8.448-.06-12.573.03-6.57-.05-13.137.05-19.707-4.55 4.126-8.95 8.411-13.47 12.566-2.69 2.467-5.3 5.173-8.47 7.012 1.96-2.456 4.21-4.705 6.29-7.05 4.66-5.259 9.35-10.489 14.08-15.69-9.63.104-19.25.14-28.88.108l.04-4.252c3.33-.226 6.76-.084 10.11-.086 5.9-.063 11.81.006 17.71.204-2-1.674-3.63-3.757-5.42-5.647-5.15-5.473-10.19-11.051-15.11-16.736.06.027.12.052.18.081.1.047.2.098.29.146 2.18 1.06 4.12 3.325 5.87 4.98 3.06 2.878 6.23 5.619 9.29 8.496 2.24 2.118 4.58 4.871 7.15 6.558-.31-13.259-.09-26.394 1.58-39.555.36-2.774.52-5.768 1.2-8.479z" fill="#b1995a"/><path d="m1267 746.746c-.12.314-.26.513-.5.766-1.26 1.35-3.28 2.039-5.06 2.387-3.06.6-6.38.377-9.49.397-5.13-.004-10.26.056-15.39.179 2.93 3.582 14.77 15.56 15.67 18.913.12.449.13.471-.11.879-3.13-1.049-14.55-13.711-18.02-16.811.18 4.016.88 26.456-.12 28.885-1.47.323-3.28.036-4.79-.05 0-9.726-.21-19.439-.01-29.165-7.02 6.086-13.19 12.814-20.72 18.358 4.31-6.706 12.3-15.112 17.91-20.947-5.43.04-10.84-.132-16.27-.166-5.1-.031-10.24.104-15.32-.277-5.61-.42-11.1-1.297-16.63-2.264l-2.61-.417c6.24-1.099 12.68-2.081 19-2.506 10.59-.714 21.38-.323 31.99-.346-4.08-3.33-15.08-16.093-17.82-20.733 7.09 5.323 14.09 12.047 20.56 18.151-.33-3.361-.18-6.84-.17-10.218l.04-16.417c1.55-.072 3.12-.051 4.68-.068.52 8.275.39 17.717.33 26.054 5.91-5.541 13.44-12.185 20.39-16.278-2.93 4.066-6.6 7.605-10.11 11.167-2.74 2.786-5.43 5.623-8.24 8.34 9.33-.001 18.75-.105 28.07.249.95.605 1.84 1.247 2.74 1.938z" fill="#b1995a"/></g><path d="m1510 726c1.07 1.41 1.58 5.377 2.51 7.299 3.01 6.206 9.44 8.764 15.59 10.861-2.83.942-5.66 1.993-8.27 3.458-6.53 3.664-7.76 8.377-9.69 15.174l-.65-2.518c-.82-2.478-1.68-4.988-3.02-7.241-3.84-6.451-10.79-7.538-17.47-9.253 3.96-1.166 7.99-1.341 11.71-3.332 5.72-3.068 7.49-8.606 9.29-14.448z" fill="#b1995a" opacity=".3"/><path d="m1509.92 739.357c1.97 1.62 3.34 3.511 5.53 4.98-2.18 1.145-3.54 2.673-5.16 4.465-.01.004-.02.012-.04.011-.12-.012-.25.004-.36-.051-.14-.071-3.53-3.78-4.58-4.563 1.89-1.12 3.25-3.153 4.61-4.842z" fill="#5a2825" opacity=".3"/><path d="m1444.18 965c4.04 6.464 2.99 24.058 2.95 31.787 2.66-2.639 18.86-17.917 20.95-18.27l.15.265c-.93 2.376-15.89 18.117-18.72 20.497 13.82-.228 27.58-.381 41.36.911 3.78.36 8.03.63 11.68 1.7-4.5.86-9.19 1.2-13.76 1.59-6.51.58-13.04.94-19.58 1.07s-13.07.05-19.61-.26c2.55 3.01 18.5 19.63 18.63 22.05-2.18-.25-18.98-16.71-21.32-19.33.19 4.38.28 8.77.24 13.16.05 3.67-.62 16.42-2.77 18.99l-.36-.07c-3.4-5.08-2.41-25.35-2.2-32.11-3.1 2.94-17.95 17.32-20.19 18.22l-.28-.49c.42-2.24 14.99-17.68 17.73-20.38-6.19.17-23.71.94-29-1.51-1.38-.64-2.83-2.16-4.08-3.091 5.61-.77 11.22-.637 16.86-.582l16.38.141c-2.98-2.315-17.02-18.44-18.04-21.406l.24-.097c2.96 1.375 17.51 15.979 20.15 19.217-.05-10.159-.93-22.506 2.59-32.002z" fill="#b1995a" opacity=".3"/><path d="m191.177 2930c4.041 6.46 2.993 24.06 2.957 31.79 2.652-2.64 18.859-17.92 20.947-18.27l.146.26c-.926 2.38-15.885 18.12-18.721 20.5 13.821-.23 27.588-.38 41.363.91 3.786.36 8.029.63 11.685 1.7-4.502.86-9.195 1.2-13.76 1.59-6.515.58-13.042.94-19.581 1.07-6.54.13-13.076.05-19.609-.26 2.544 3.01 18.494 19.63 18.621 22.05-2.18-.25-18.972-16.71-21.314-19.33.193 4.38.274 8.77.243 13.16.044 3.67-.627 16.42-2.775 18.99l-.362-.07c-3.396-5.08-2.411-25.35-2.2-32.11-3.095 2.94-17.951 17.32-20.188 18.22l-.275-.49c.419-2.24 14.986-17.68 17.728-20.38-6.196.17-23.714.94-29.002-1.51-1.382-.64-2.833-2.16-4.08-3.09 5.606-.77 11.222-.64 16.865-.58l16.374.14c-2.978-2.32-17.015-18.44-18.04-21.41l.245-.09c2.957 1.37 17.507 15.97 20.15 19.21-.056-10.16-.935-22.5 2.583-32z" fill="#b1995a" opacity=".3"/><path d="m89.1769 156c4.0414 6.464 2.9934 24.058 2.9576 31.787 2.6519-2.639 18.8585-17.917 20.9465-18.27l.146.265c-.926 2.376-15.8845 18.117-18.7207 20.497 13.8207-.228 27.5877-.381 41.3627.915 3.786.356 8.029.628 11.685 1.694-4.502.865-9.195 1.204-13.76 1.596-6.515.576-13.042.931-19.581 1.066-6.54.134-13.076.048-19.6095-.259 2.5441 3.01 18.4945 19.627 18.6215 22.044-2.18-.248-18.9719-16.709-21.3143-19.329.1935 4.387.2745 8.777.243 13.168.0439 3.67-.6263 16.415-2.7747 18.988l-.3625-.075c-3.395-5.079-2.411-25.342-2.1995-32.102-3.0954 2.936-17.9513 17.316-20.188 18.217l-.275-.49c.4187-2.242 14.9856-17.683 17.7283-20.385-6.1967.169-23.7148.941-29.0025-1.504-1.3822-.639-2.8327-2.166-4.0798-3.094 5.6062-.77 11.2222-.637 16.865-.582l16.3738.141c-2.9777-2.315-17.015-18.44-18.0396-21.406l.2447-.097c2.9572 1.375 17.5075 15.979 20.1497 19.217-.0555-10.159-.9346-22.506 2.5833-32.002z" fill="#b1995a" opacity=".3"/><path d="m1194.97 377c.44.56 3.97 11.803 4.86 13.914 4.88 11.575 13.3 12.075 23.8 16.319-2.74.835-5.51 1.663-8.19 2.685-11.65 4.454-14.37 7.127-18.08 19.013-.74 2.384-1.25 5.057-2.31 7.314-.06.132-.13.262-.19.393-1.28-4.459-2.56-8.936-4.29-13.249-.81-2.033-1.74-4.023-3.16-5.707-4.77-5.635-14.78-8.156-21.41-10.999 5.25-1.465 11.78-3.568 16.48-6.264 7.85-4.503 10.25-15.305 12.49-23.419z" fill="#b1995a" opacity=".3"/><path d="m1195.24 402.448c.63 1 .96 2.159 1.36 3.268.61.138 1.29.232 1.84.563.3.183.2.14.26.528-.7.699-1.78 1.025-2.68 1.41-.25.794-.45 1.704-.98 2.364-1.29-2.053-2.09-3.02-4.38-3.931.89-.365 1.78-.669 2.69-.957.71-1.064 1.36-2.075 1.89-3.245z" fill="#5a2825" opacity=".3"/><path d="m1026.89 2209.62c.73-2.69.97-5.71 1.32-8.47 1.68-13.28 1.72-26.6 1.37-39.96 4.53 4.49 9.19 8.79 13.88 13.12 2.81 2.58 5.54 5.38 8.59 7.68-1.96-2.89-4.49-5.46-6.81-8.05l-13.17-14.5c9.22.5 18.52.25 27.74.23-.06-1.49 0-3 .01-4.49-9.58.02-19.23.34-28.81.15 4.76-4.71 9.19-9.83 13.65-14.83 2.24-2.51 4.99-5.01 6.71-7.91-2.89 2.14-5.55 4.79-8.22 7.2-4.53 4.09-9.11 8.12-13.29 12.57-.2-10.71-.27-21.41-.23-32.12-.83.48-1.57.78-2.5 1.01-1.06-.23-1.78-.68-2.67-1.25-.4 4.1-.08 8.45-.06 12.57.03 6.57-.05 13.14.05 19.71-4.55-4.13-8.95-8.41-13.47-12.57-2.69-2.46-5.3-5.17-8.47-7.01 1.96 2.46 4.21 4.71 6.29 7.05 4.66 5.26 9.35 10.49 14.08 15.69-9.63-.1-19.25-.14-28.88-.11l.038 4.26c3.334.22 6.762.08 10.112.08 5.9.06 11.81 0 17.71-.2-2 1.67-3.63 3.76-5.42 5.65-5.15 5.47-10.19 11.05-15.11 16.73.06-.03.12-.05.18-.08.1-.05.2-.1.29-.15 2.18-1.06 4.12-3.32 5.87-4.98 3.06-2.87 6.23-5.61 9.29-8.49 2.24-2.12 4.58-4.87 7.15-6.56-.31 13.26-.09 26.39 1.58 39.56.36 2.77.52 5.76 1.2 8.47z" fill="#b1995a" opacity=".4"/><path d="m76.6194 1461c.2149.08.3514.18.5242.34.9246.87 1.395 2.26 1.6315 3.48.4076 2.1.2509 4.37.2611 6.5-.0085 3.52.0266 7.04.1053 10.56 2.4599-2.01 10.6876-10.11 12.9884-10.73.3076-.08.3228-.09.6024.08-.7231 2.15-9.4193 9.96-11.549 12.34 2.7539-.12 18.144-.57 19.8087.12.219 1.01.02 2.24-.04 3.28-6.6701-.01-13.3316.12-20.0009-.03 4.1659 4.82 8.7728 9.06 12.5656 14.23-4.5937-2.96-10.3493-8.45-14.3445-12.31.0217 3.73-.1029 7.44-.1322 11.16-.0274 3.5.0594 7.02-.2078 10.51-.2945 3.84-.9023 7.61-1.5713 11.4l-.2889 1.79c-.7468-4.28-1.4125-8.7-1.6973-13.03-.4772-7.27-.1965-14.66-.2003-21.94-2.2885 2.79-11.0537 10.32-14.2389 12.2 3.6589-4.86 8.2777-9.65 12.4711-14.08-2.3051.22-4.6907.11-7.007.11l-11.259-.05c-.047-1.07-.0312-2.14-.0406-3.21 5.6749-.35 12.1501-.25 17.8672-.2-3.7932-4.06-8.3404-9.23-11.1397-14 2.785 2.01 5.208 4.54 7.6465 6.95 1.9076 1.88 3.8502 3.72 5.7098 5.66.0102-6.4-.0503-12.86.2029-19.25.4163-.66.8573-1.27 1.3327-1.88z" fill="#b1995a" opacity=".3"/><g opacity=".4"><path d="m1076.6 921.955.04 1.415c.63.436.73.556 1.54.431 1.07-.165 2.46-1.087 3.05-1.993.52-.784.53-1.04.47-1.923-.76-.847-.89-.842-2.01-1.113-.9 1.155-1.74 2.534-3.09 3.183z" fill="#886846"/><g fill="#b1995a"><path d="m978.134 1138.46c1.54.06 3.2-.08 4.604-.76 1.662-.8 3.033-2.31 3.632-4.06.077-.23.144-.46.199-.69.056-.23.101-.47.133-.7.033-.24.054-.48.063-.71.009-.24.007-.48-.007-.72s-.04-.47-.077-.71c-.038-.23-.086-.47-.146-.7s-.131-.46-.214-.68c-.082-.22-.176-.44-.279-.66-1.075-2.18-2.692-3.07-4.897-3.89-1.597-.09-2.937-.09-4.423.58-.232.1-.459.22-.68.34-.22.13-.434.27-.64.42-.207.15-.406.31-.597.48-.19.17-.372.34-.544.53-.173.19-.335.38-.488.59-.153.2-.295.41-.426.63s-.251.44-.359.68c-.109.23-.205.46-.29.7-.673 1.93-.552 4.12.456 5.91 1.135 2.02 2.835 2.8 4.98 3.42z"/><path d="m978.697 732.34c1.538-.097 3.161-.135 4.593-.764 1.933-.848 3.52-2.456 4.253-4.443.706-1.909.642-4.068-.312-5.878-1.252-2.377-3.282-3.307-5.724-4.098-1.76-.131-3.411-.125-5.047.636-.238.109-.47.229-.696.362s-.444.276-.655.431-.414.321-.608.496c-.194.176-.379.361-.553.557-.175.194-.34.398-.494.61-.154.211-.296.431-.427.657-.132.227-.251.459-.359.698-.107.239-.202.483-.284.731-.079.243-.146.49-.199.74-.054.25-.094.502-.121.756-.028.255-.042.51-.042.765-.001.256.011.511.037.766.026.254.065.506.117.756.052.251.117.498.195.741.078.244.168.483.271.717s.218.462.344.684c1.261 2.206 3.35 3.371 5.711 4.08z"/><path d="m654.251 1170.35 2.01-2.29.087-10.43c2.541.06 5.331.19 7.843-.15 1.511-.21 3.156-.56 4.147-1.8-.095-.66.047-.58-.42-.95-2.544-2.06-8.468-1.29-11.629-1.22-.005-3.06.803-7.41-.176-10.28-.42-1.23-1.288-1.33-2.374-1.83l-.581.19c-1.474 2.39-.896 8.62-.964 11.54-3.84.34-8.91-.43-12.118 2.06l-.076.77c2.888 2.22 8.817 1.57 12.349 1.55.067 1.81-.026 3.63-.05 5.44-.039 2.94-.216 5.18 1.952 7.4z"/><path d="m583.852 666.46c-.445 5.291-1.58 10.143 1.411 14.895.87-1.293 1.829-2.579 2.541-3.965-.353-3.71-.59-7.427-.712-11.151 7.997.376 7.369 1.141 15.504-1.28l-6.014-2.662c-3.01.683-6.104.862-9.174 1.126-1.706-5.326 2.428-8.196-1.805-15.997-3.603 6.759-1.484 8.842-1.674 15.892-3.737-.206-7.61-.213-11.308-.783l-4.621 2.442c1.593.663 2.954 1.361 4.41 2.284 3.86-.948 7.482-.878 11.442-.801z"/><path d="m864.294 852.909c2.39-2.479 3.366-8.995 4.288-12.405.092-.01.186-.019.278-.031l.463-.064c3.735-.498 7.533-2.051 11.143-3.142-.092-.039-.182-.079-.273-.117l-.459-.184c-3.775-1.549-7.838-1.861-11.633-3.339-.938-4.019-2.204-7.81-3.713-11.649-1.604 3.795-2.582 7.917-3.525 11.921-3.763.892-7.494 1.899-11.194 3.022l-.346-.228-.139.751.343-.004-.427-.289-.268.208c2.981 1.868 8.479 2.424 11.962 3.215.904 4.151 2.047 8.341 3.5 12.335z"/><path d="m1067.48 934.788c-.75.654-1.51 1.058-1.79 2.032.64 1.232 1.74 1.926 3.05 2.31 1.06.308 1.88.255 2.85-.306.91-1.494.53-2.705.21-4.351-.71-.242-1.15-.315-1.9-.243-3.59-2.593-6.32-8.753-8.57-12.589 4.72-.196 10.7-1.032 15.27.314 1.35-.649 2.19-2.028 3.09-3.182-.77-.462-1.46-.847-2.32-1.16-.76.668-.74 1.31-.98 2.279l-15.14-.005c1.85-2.46 3.85-4.894 5.43-7.546 1.63-2.58 2.11-3.773 5.24-4.543.58-.902.43-1.561.21-2.584-.1-.447-.21-.892-.32-1.336-.55-.395-1.04-.599-1.69-.819-1.75.422-3.06.536-4.09 2.153.2 1.176.58 1.419 1.36 2.288l.07.199c-.2 1.361-1.28 2.67-2.02 3.811-2.04 1.865-3.85 5.018-5.71 7.171-1.04-1.778-2.32-3.337-3.6-4.938-1.6-1.928-3.76-4.156-4.6-6.525.78-.377 1.58-.697 2.19-1.347.39-.42.25-.539.21-1.057-.78-.846-2.33-1.347-3.45-1.631-.68-.174-1.49-.448-2.11-.067.22.435.42.859.61 1.304-.74.441-1 .522-1.4 1.27 1.67 3.057 5.3 6.327 7.42 9.746l2.74 4.475c-3.51.02-7.02-.005-10.53.146-.6-.005-1.26.021-1.86-.079-.87-.146-1.37-.968-1.89-1.619l-.25-.321c-1.53-.1-3.31 1.494-4.58 2.352.67.782 1.34 1.618 2.07 2.34.86.847 1.11 1.171 2.3 1.166 1.34-.738.37-1.257 1.22-2.417 4.41.307 8.93.137 13.35.156-1.37 2.78-5.9 8.887-6.25 11.308-1.01.81-2.54 1.073-3.35 2.035.42.396.73.775 1.31.92.66.167.17-.048.98.38.16.088.33.182.49.274-.5.028-1.08.016-1.56.131-.8.188-.85.379-1.26 1.034l.24.681c.38.2.61.343 1.04.474 1.13.35 2.37-.595 3.32-1.136l1.12-.706c-.16-1.425-1.63-1.539-1.68-3.318 2.29-3.698 4.73-7.445 7.38-10.891 2.98 3.827 5.93 7.627 8.13 11.967z"/><path d="m659.979 839.355c1.647-3.012 2.8-6.378 4.084-9.561 3.491.162 6.989.39 10.485.229-1.887-2.589-4.193-4.936-6.329-7.323 1.884-3.092 4.447-5.508 6.055-8.834-3.417.205-6.947.714-10.323 1.274-.491-1.846-2.628-8.257-4.048-9.14-1.07 2.303-2.208 6.443-3.982 8.113-1.522 1.432-8.31.229-10.396.108 1.975 2.591 4.072 5.079 6.292 7.463-2.455 2.719-4.707 5.692-6.817 8.682 3.538-.669 7.219-.79 10.81-.853 1.306 3.321 2.572 6.648 4.169 9.842z"/></g><path d="m774.321 1018.35c4.018-5.38 7.361-16.24 9.536-22.776 8.057-.09 16.132.088 24.182-.252-.055-.078-.109-.157-.165-.234-.094-.128-.191-.254-.285-.383-3.895-5.388-12.335-11.253-17.934-14.975 1.825-7.957 4.336-15.923 5.447-24.01-7.082 3.509-13.768 7.979-20.49 12.122-7.092-3.698-13.707-8.721-20.978-12.008.501 5.952 3.256 17.499 5.982 22.793-6.544 5.33-12.763 10.624-18.616 16.723 7.907.547 16.019.279 23.957.39 3.478 7.4 6.195 15.09 9.364 22.61z" fill="#886846"/></g><path d="m723.46 209.251c3.043.279 5.934-.049 8.95-.45-7.529-1.868-14.846-5.349-19.352-11.93-3.533-5.157-4.709-11.721-3.496-17.826 1.288-6.485 5.505-11.976 10.97-15.574 8.435-5.554 14.407-4.492 23.789-2.54-1.912-1.874-3.898-3.348-6.15-4.787-3.079-1.853-6.726-3.182-10.291-3.656-.451-.059-.903-.106-1.356-.143-.453-.036-.907-.061-1.362-.075-.454-.014-.908-.017-1.363-.008-.455.008-.909.027-1.362.058-.454.031-.907.073-1.358.126-.452.052-.902.116-1.35.191s-.895.161-1.339.258-.885.205-1.324.324-.875.248-1.307.388c-.433.14-.861.291-1.287.452-.424.161-.845.333-1.262.515s-.829.374-1.236.576-.809.414-1.206.637c-.396.221-.788.453-1.173.694s-.764.492-1.138.751c-.373.26-.739.529-1.099.807-.382.297-.757.604-1.124.92-.367.315-.726.64-1.077.973-.351.334-.694.675-1.029 1.025-.333.35-.659.709-.976 1.075s-.624.74-.922 1.121c-.298.382-.587.77-.866 1.166-.28.395-.549.797-.808 1.206-.26.409-.509.824-.748 1.245s-.468.847-.686 1.28c-.218.432-.425.87-.622 1.312-.196.442-.382.889-.556 1.341s-.338.908-.49 1.367c-.152.46-.293.923-.423 1.389-.129.467-.246.937-.352 1.409-.107.472-.201.947-.284 1.424s-.154.955-.214 1.436c-.876 7.291 1.474 15.001 6.062 20.696 5.227 6.49 13.051 9.965 21.217 10.827z" fill="url(#h)" opacity=".3"/><path d="m510.538 19.3548c1.523.0056 2.932-.1287 4.331-.7818 2.169-1.0122 3.799-2.7777 4.541-5.0616.641-1.9738.498-4.20295-.468-6.04673-1.389-2.65464-3.579-3.68481-6.297-4.61604-1.565.06227-3.038.26082-4.463.9589-2.151 1.05438-3.77 2.9134-4.429 5.22419-.071.25322-.13.50919-.177.76795-.046.25873-.079.51913-.101.78103-.021.262-.029.5245-.025.7874.005.2629.022.5251.052.7866.03.2611.073.5201.128.777.056.2573.123.5113.203.7617.08.2505.172.4963.276.7375.104.2417.22.4776.347.7078 1.369 2.4394 3.466 3.5291 6.082 4.2161z" fill="#b1995a" opacity=".3"/><path d="m849.11 533.355c2.351-2.873 2.305-11.312 2.309-14.798 2.973-.035 5.992-.066 8.924-.603 1.13-.208 2.33-.394 3.011-1.365-.063-.094-.114-.197-.19-.281-1.787-1.965-8.719-2.173-11.439-2.472-.251-4.109-.165-8.869-2.112-12.59-.304.173-.529.275-.777.549-1.498 1.656-1.768 9.698-1.967 12.065-3.124.194-8.139.214-10.929 1.713-.635.341-.719.37-.94 1.074.058.085.104.179.174.255 1.825 1.993 9.062 1.558 11.731 1.629.023 4.663-.069 10.594 2.205 14.824z" fill="#b1995a" opacity=".3"/><g opacity=".3"><path d="m914.894 408.279c23.031.848 43.6-5.387 61.647-19.944 17.538-14.145 29.949-38.512 32.239-60.783.08-.745.15-1.492.22-2.24.07-.747.12-1.496.17-2.245s.09-1.498.11-2.248c.03-.75.05-1.5.06-2.251.01-.75.01-1.501 0-2.251 0-.751-.02-1.501-.05-2.251s-.06-1.5-.11-2.249c-.04-.749-.1-1.497-.16-2.245s-.14-1.495-.22-2.241-.17-1.491-.28-2.235c-.1-.743-.21-1.486-.33-2.227-.11-.74-.24-1.48-.38-2.218-.14-.737-.28-1.473-.44-2.207-.16-.735-.32-1.467-.49-2.197-.18-.73-.36-1.458-.55-2.184s-.39-1.449-.6-2.169c-.21-.721-.43-1.439-.66-2.154s-.46-1.428-.71-2.137c-.24-.709-.5-1.416-.76-2.119s-.53-1.403-.81-2.099c-.28-.697-.57-1.39-.87-2.079-.29-.69-.6-1.376-.91-2.057-.32-.682-.64-1.36-.97-2.034-.328-.673-.667-1.343-1.014-2.009-.347-.665-.702-1.326-1.065-1.983-.364-.656-.735-1.309-1.115-1.956-.379-.648-.766-1.29-1.162-1.928-.395-.638-.798-1.271-1.209-1.899s-.83-1.251-1.256-1.869c-.427-.618-.861-1.23-1.302-1.837-.442-.607-.891-1.208-1.347-1.804s-.92-1.186-1.391-1.77c-16.942-20.631-37.614-31.67-64.193-34.355-25.443-.841-46.972 7.389-65.839 24.378-16.288 14.665-27.934 38.305-29.007 60.313-1.258 25.827 5.896 49.396 23.52 68.763 15.461 16.991 38.27 27.928 61.234 29.02z" fill="#5f252f"/><path d="m840.169 317.8c-.212.181-.37.478-.529.709.033 12.117 3.5 24.958 8.908 35.72 9.4 18.705 26.576 33.766 46.499 40.292 3.988 1.306 20.908 5.493 24.209 3.806l.652-.035c19.202 1.029 40.299-9.096 54.385-21.648 3.742-3.335 6.75-7.187 9.653-11.25 8.953-12.528 14.68-26.19 15.556-41.692.113-2.019.24-4.062-.014-6.073l-.002-.603c.376-2.783-.032-5.957-.385-8.753-1.716-13.612-6.761-27.7-15.114-38.69-2.761-3.632-5.767-7.5-9.018-10.698-12.041-11.85-29.74-20.319-46.402-22.489-3.027-.398-6.067-.655-9.118-.771l-.547.499c-.297-.18-.347-.243-.693-.321-2.045-.461-5.284.182-7.374.469-13.288 1.827-25.066 6.556-36.13 14.138-17.302 11.859-29.7 31.697-33.512 52.246-.642 3.46-2.852 11.89-.93 14.693z" fill="#b1995a"/><g fill="#5a2825"><path d="m900.238 328.371c-.209-1.625-.913-4.373-2.045-5.601l-.517-.015-.75 1.321-2.008 3.534z"/><path d="m931.444 299.428c.441-1.117-1.048-4.133-1.524-5.377l-2.503 1.179-3.011 1.595c2.364.794 4.699 1.735 7.038 2.603z"/><path d="m938.047 328.817c1.584-.285 3.856-.487 5.03-1.543.172-1.204-.738-2.412-1.313-3.439-.222-.414-.463-.669-.78-1.011l-.591.276c-1.146 1.67-1.683 3.812-2.346 5.717z"/><path d="m929.785 340.588c1.06-.684 1.664-4.331 1.996-5.584l-3.66 1.428-3.584 1.59z"/><path d="m907.086 299.76c2.427-.775 5.155-1.453 7.36-2.72l-.967-.638c-1.696-.524-3.35-1.263-4.999-1.921-.58 1.716-.956 3.521-1.394 5.279z"/><path d="m940.959 313.051c1.103-1.388 2.355-3.256 2.535-5.032-.523-.96-1.06-.904-2.072-1.239-.68-.189-1.364-.369-2.049-.54l-.567.337c-.288 1.917 1.391 4.69 2.153 6.474z"/><path d="m898.049 313.088c1.21-1.36 2.153-4.512 2.118-6.303l-.437-.404-1.662.251-3.306 1.03c1.224 1.729 2.239 3.587 3.287 5.426z"/><path d="m908 341.245c1.64-.704 4.673-1.557 5.649-3.037l-.253-.615-1.909-.75c-1.601-.638-3.278-1.117-4.919-1.648.539 2.003.977 4.028 1.432 6.05z"/><path d="m875.963 359.309c3.766-1.828 7.253-4.201 10.811-6.393 5.783-3.561 11.727-7.153 17.76-10.271-1.078-2.888-1.707-5.913-2.79-8.812-2.636-1.274-6.261-1.734-9.125-2.583-4.392 9.916-11.217 18.715-16.656 28.059z"/><path d="m946.063 303.888c1.594-1.691 5.091-9.123 6.584-11.63 3.353-5.631 6.979-11.01 10.821-16.317-2.81 1.179-5.466 2.765-8.135 4.233-6.881 4.445-14.276 8.465-21.565 12.203 1.255 2.736 2.154 5.746 3.244 8.563 2.87 1.298 6.032 2.059 9.051 2.948z"/><path d="m962.809 359.966c-.096-.795-15.134-25.721-16.868-28.939-3.008.99-6.095 1.804-9.138 2.69l-2.914 9.263c8.611 4.122 21.597 11.282 28.92 16.986z"/><path d="m892.545 303.776c2.922-.779 5.868-1.479 8.803-2.211 1.433-3.058 2.368-6.226 3.365-9.444-6.825-4.09-14.005-7.477-20.784-11.728-2.762-1.607-5.506-3.161-8.384-4.556 6.379 8.866 11.184 18.734 17 27.939z"/><path d="m947.643 325.937c4.421-.834 8.748-2.366 13.092-3.547 6.653-1.77 13.332-3.432 20.037-4.986-3.335-1.464-7.234-2.128-10.764-3.008-7.366-1.945-14.789-3.664-22.08-5.883-1.837 2.949-3.731 5.872-5.299 8.975 1.879 2.714 3.458 5.545 5.014 8.449z"/><path d="m890.732 326.035.328-.037c2.079-2.53 3.51-5.978 5.272-8.776-1.836-2.734-3.515-5.455-5.059-8.367-7.401 1.849-14.79 3.745-22.167 5.688-4.243 1.171-8.639 1.889-12.823 3.246 11.67 2.07 22.972 5.381 34.449 8.246z"/><path d="m918.611 295.027c2.6.177 7.821-3.531 10.196-4.855-3.276-11.848-6.152-23.812-9.377-35.678l-.199-.141c-1.187 3.214-1.61 6.88-2.508 10.206-2.327 8.622-4.848 17.189-7.129 25.829 3.064 1.458 6.095 2.904 9.017 4.639z"/><path d="m919.249 381.5c1.389-2.397 3.305-13.07 4.171-16.449 1.782-6.805 3.642-13.589 5.579-20.352-3.23-1.633-6.356-3.503-9.505-5.287-3.25 1.94-6.519 3.846-9.808 5.718 1.327 6.42 3.504 12.687 5.289 18.994 1.621 5.732 2.908 11.577 4.274 17.376z"/><path d="m919.83 335.408c2.884.124 10.147-3.46 13.072-4.627 1.956-4.685 3.786-9.412 5.825-14.064-2.016-4-3.695-8.084-5.361-12.237-4.469-1.954-9.024-3.681-13.665-5.182-4.762 1.482-9.413 3.2-14.118 4.848-1.266 4.603-3.201 9.187-4.901 13.654 1.608 4.242 3.408 8.4 4.848 12.705 4.526 2.077 9.553 3.394 14.3 4.903z"/><path d="m840.172 317.8c-.213.181-.37.478-.529.709.033 12.117 3.5 24.958 8.908 35.72 9.399 18.705 26.575 33.766 46.499 40.292 3.987 1.306 20.907 5.493 24.209 3.806-3.168-10.71-5.783-21.572-8.538-32.393-1.587-6.235-3.61-12.617-4.75-18.936-7.192 4.333-14.483 8.461-21.599 12.926-7.69 4.824-15.337 10.108-23.405 14.273 3.252-4.311 5.979-9.008 8.822-13.592l11.834-18.929c2.32-3.697 4.546-8.114 7.499-11.3-4.8-1.757-9.9-2.791-14.863-3.993l-22.538-5.478c-3.719-.93-8.021-1.653-11.549-3.105z"/><path d="m840.263 317.349c10.209-2.558 20.401-5.186 30.576-7.882 5.892-1.526 11.859-2.878 17.698-4.591-5.92-9.665-11.724-19.423-17.857-28.954-2.944-4.576-6.685-8.835-9.062-13.734 4.847 2.161 9.497 5.575 14.052 8.326 9.969 6.021 19.938 12.212 30.34 17.452 1.451-8.125 4.061-16.304 6.046-24.336 2.248-9.092 4.02-18.606 6.846-27.506-.297-.18-.347-.243-.693-.321-2.045-.461-5.284.182-7.374.469-13.288 1.827-25.066 6.556-36.13 14.138-17.302 11.859-29.7 31.697-33.512 52.246-.642 3.46-2.852 11.89-.93 14.693z"/><path d="m999.488 317.026c.376-2.783-.032-5.957-.385-8.753-1.716-13.612-6.761-27.7-15.113-38.69-2.761-3.632-5.768-7.5-9.018-10.698-12.041-11.85-29.741-20.319-46.402-22.489-3.028-.398-6.067-.655-9.119-.77 1.012 4.799 2.532 9.521 3.765 14.272l5.665 22.668c1.339 5.17 2.859 10.34 3.76 15.606 5.049-3.35 10.786-6.008 16.047-9.055 9.681-5.608 19.215-11.535 28.826-17.27l-27.458 43.269c16.536 3.729 33.013 7.699 49.432 11.91z"/><path d="m919.91 398.292c19.202 1.029 40.299-9.096 54.385-21.649 3.742-3.334 6.75-7.187 9.653-11.249 8.953-12.528 14.68-26.19 15.556-41.692.113-2.019.24-4.062-.014-6.073-10.381 1.654-20.874 4.858-31.062 7.476-6.165 1.585-12.585 2.701-18.617 4.717 5.879 9.318 11.505 18.732 17.214 28.152 3.235 5.337 6.805 10.569 9.658 16.12-7.997-5.412-16.261-10.651-24.56-15.585-6.472-3.848-13.192-7.495-19.439-11.689-4.733 17.053-8.19 34.401-12.774 51.472z"/></g></g><g opacity=".3"><g fill="#b1995a"><path d="m577.722 474.235c1.332.128 2.644.227 3.958-.103 1.717-.43 3.273-1.748 4.084-3.308.728-1.398.892-3.127.374-4.623-.749-2.162-2.171-3.281-4.185-4.199-1.184-.199-2.472-.214-3.648.062-1.596.376-3.041 1.295-3.905 2.708-.866 1.418-1.035 3.084-.651 4.684.561 2.341 2.021 3.548 3.973 4.779z"/><path d="m575.635 425.428c1.851.1 3.57.18 5.35-.473 2.205-.811 4.026-2.424 4.945-4.603.888-2.102.885-4.596-.06-6.68-1.107-2.439-3.212-3.803-5.616-4.759-1.888-.348-3.554-.516-5.391.183-2.07.787-3.644 2.405-4.497 4.434-.931 2.214-.972 4.85-.042 7.07 1.053 2.518 2.889 3.771 5.311 4.828z"/><path d="m599.844 455.088c4.404-4.083 5.86-8.821 11.646-11.879-4.165-3.515-8.513-6.816-11.232-11.626-1.9 1.282-3.678 4.255-5.295 6.009-1.886 2.046-3.946 3.857-6.057 5.665 4.776 3.293 8.145 6.723 10.938 11.831z"/></g><path d="m599.838 447.858c2.055-.789 3.729-3.058 5.083-4.741l-4.717-4.592c-1.636.924-3.632 3.401-4.823 4.93 1.678 1.354 3.056 2.764 4.457 4.403z" fill="#5a2825"/><path d="m556.958 454.388c4.146-4.386 6.404-7.901 11.771-11.17-1.616-1.269-3.532-3.287-5.264-4.272-2.23-2.511-4.337-5.006-6.362-7.692-3.507 5.038-6.877 8.44-12.103 11.682 2.929 2.422 5.967 4.509 8.567 7.316z" fill="#b1995a"/><path d="m556.335 447.432c1.864-.399 4.063-3.448 5.302-4.815l-4.375-3.849c-1.61.343-3.738 3.098-4.844 4.265z" fill="#5a2825"/></g><g opacity=".3"><g fill="#b1995a"><path d="m229.722 2495.24c1.332.12 2.644.22 3.958-.11 1.717-.43 3.273-1.75 4.084-3.31.728-1.39.892-3.12.374-4.62-.749-2.16-2.171-3.28-4.185-4.2-1.184-.2-2.472-.21-3.648.06-1.596.38-3.041 1.3-3.905 2.71-.866 1.42-1.035 3.09-.651 4.69.561 2.34 2.021 3.54 3.973 4.78z"/><path d="m227.635 2446.43c1.851.1 3.57.18 5.35-.48 2.205-.81 4.026-2.42 4.945-4.6.888-2.1.885-4.59-.06-6.68-1.107-2.44-3.212-3.8-5.616-4.76-1.888-.34-3.554-.51-5.391.19-2.07.78-3.644 2.4-4.497 4.43-.931 2.21-.972 4.85-.042 7.07 1.053 2.52 2.889 3.77 5.311 4.83z"/><path d="m251.844 2476.09c4.404-4.09 5.86-8.82 11.646-11.88-4.165-3.52-8.513-6.82-11.232-11.63-1.9 1.28-3.678 4.26-5.295 6.01-1.886 2.05-3.946 3.86-6.057 5.67 4.776 3.29 8.145 6.72 10.938 11.83z"/></g><path d="m251.838 2468.86c2.055-.79 3.729-3.06 5.083-4.74l-4.717-4.6c-1.636.93-3.632 3.41-4.823 4.93 1.678 1.36 3.056 2.77 4.457 4.41z" fill="#5a2825"/><path d="m208.958 2475.39c4.146-4.39 6.404-7.9 11.771-11.17-1.616-1.27-3.532-3.29-5.264-4.27-2.23-2.52-4.337-5.01-6.362-7.7-3.507 5.04-6.877 8.44-12.103 11.69 2.929 2.42 5.967 4.51 8.567 7.31z" fill="#b1995a"/><path d="m208.335 2468.43c1.864-.4 4.063-3.45 5.302-4.81l-4.375-3.85c-1.61.34-3.738 3.1-4.844 4.26z" fill="#5a2825"/></g><g opacity=".3"><g fill="#b1995a"><path d="m782.902 1305.36c-.107 1.01-.259 1.37.219 2.3.541.1.714.06 1.219-.22 1.188-.67 2.364-1.77 3.452-2.6l-.122-.39-.032.19c-1.229-1.1-2.418-2.15-3.808-3.05-.821.27-1.198.97-1.684 1.64.555.88.77 1.06.756 2.13z"/><path d="m771.834 1315.65.229.47c.527 1.11.974 2 1.008 3.25-.355.67-.757 1.17-1.262 1.74.572 1.07 2.12 1.61 3.226 1.96.685.21 1.248.32 1.973.28l.393-.45-.435-.79.244-.24c.596-.6 1.027-.98 1.195-1.84-.355-.88-.705-1.27-1.583-1.69-2.775-1.31-2.407-.15-4.092-3.11z"/><path d="m770.521 1295.5c.272.76.421.82 1.074 1.32 2.119-3.56 3.939-3.45 6.382-6.16-.473-1.16-.751-2.49-1.884-3.15-.602-.35-1.833-.47-2.462-.22-.875.36-1.342 1.06-1.646 1.92-.32.91.101 1.77.425 2.61-.121 1.37-1.145 2.56-1.889 3.68z"/><path d="m761.736 1308.65c-1.759 2.67-3.257 6.96-5.744 8.92-1.612.18-2.107.22-3.164 1.45.133 1.33.435 2.47.871 3.73.592.25.73.39 1.396.3 1.279-.16 2.853-.96 3.657-1.96-.273-.64-.64-1.36-.783-2.04-.448-2.13 3.79-7.65 4.958-9.48-.411-.41-.649-.69-1.191-.92z"/><path d="m761.223 1300.45c.961.09 1.21.22 2.03-.26-1.644-2.82-3.724-5.46-5.471-8.24.556-.85 1.009-1.56 1.309-2.55-.425-.68-.225-.49-.871-.99-1.063-.82-2.171-.93-3.456-.78-.543.34-.93.45-1.212 1.06-.498 1.08-.434 2.15-.026 3.25.828.5 1.213.42 2.164.44 2.389 1.94 4.017 5.45 5.533 8.07z"/></g><path d="m771.836 1315.65.896-.42c-1.737-3.16-3.632-6.24-5.493-9.33 3.3-.23 6.604-.38 9.912-.44 1.85-.03 3.945.19 5.754-.1.014-1.07-.201-1.25-.755-2.13-1.8 1.42-12.504.72-15.419.86 1.683-2.29 3.607-4.71 4.867-7.27-.653-.5-.801-.56-1.073-1.32-1.678 2.57-3.633 4.99-5.467 7.44-.557-.96-1.14-1.85-1.803-2.75-.82.48-1.069.35-2.03.26l2.239 3.57c-5.043.19-10.119.42-15.159.08-.653-1.16-.886-2.05-2.074-2.71-.717.14-1.001.34-1.479.86-.874.94-1.809 1.8-2.752 2.68 1.287 1.3 2.816 2.43 4.225 3.6l2.087-2.63c5.012-.27 10.096-.09 15.117-.05l-1.692 2.8c.542.23.781.51 1.192.92.822-.64 1.613-2.04 2.264-2.9 2.395 2.86 4.303 6.08 6.643 8.98z" fill="url(#i)"/></g><path d="m413.734 1382.03c2.876-4.43 7.802-18.21 9.681-23.68 7.653.25 15.307.28 22.961.08-5.344-5.55-11.531-9.7-17.067-14.93 1.262-8.22 4.789-16.11 6.663-24.22-3.957 1.74-20.161 12.41-21.743 12.4-7.628-3.41-14.677-8.6-21.992-12.68 1.481 8.09 4.861 15.88 6.87 23.87-6.135 5.19-12.3 10.23-18.107 15.81 7.915.22 15.875.05 23.794.03 2.779 7.86 5.832 15.58 8.94 23.32z" fill="#886846" opacity=".3"/><path d="m509.038 1043.92c-.038 21.93 2.462 19.43 2.725.18 4.928 1.59 8.752 2.82 14.013 2.77-3.848-2.92-8.163-5.43-12.204-8.1.345-7.65.614-15.3.809-22.95 3.465.18 13.779-.43 16.307.73 1.433.66 2.77 2.12 3.969 3.16 2.034 1.77 4.161 3.97 6.662 5.02l.397-.25c-.462-3.78-7.139-8.68-7.38-12.17 2.209-3.85 5.132-7.44 7.048-11.41-3.898 2.36-6.957 5.39-10.523 8.16-3.808 2.63-11.81 1.25-16.318 1.05.038-6.94-.503-13.965-.861-20.903-.684-13.249-1.494-26.428-3.372-39.573-1.006 10.88-1.811 21.776-2.413 32.687-.595 9.282-1.388 18.619-1.325 27.929-5.054-.05-10.112 0-15.166 0-3.48-2.54-6.686-6.63-10.615-8.37l-.33.35c.524 3.69 4.481 7.02 6.008 10.5.049.11.094.22.141.34-2.748 4.2-6.117 8.12-8.372 12.62 4.46-2.35 8.368-6.07 12.247-9.27 5.313-.17 10.627-.22 15.942-.17.397 7.45 1.144 14.87 1.405 22.34-2.19 1.31-10.647 5.68-11.549 7.67l.41.35c3.621.61 9.24-.79 12.345-2.69z" fill="#b1995a" opacity=".3"/><path d="m829.629 1424.35c2.011-2.2 3.424-7.4 4.04-10.33 3.797.58 7.639.97 11.454 1.43-2.223-2.98-4.934-5.74-7.43-8.5 2.936-2.31 5.225-5.73 7.522-8.66-3.748.39-7.481 1.01-11.208 1.55v-.62l-.405-.18.233-.38c-.703-2.44-1.836-4.8-2.836-7.15l-.526-1.1c-2.086 1.26-3.732 7.12-4.504 9.45-3.644-.52-7.282-1.06-10.916-1.64 1.95 3.24 4.409 5.91 7.005 8.65-2.594 2.73-5.202 5.34-7.058 8.65 3.706-.66 7.436-1.12 11.19-1.38 1.04 3.44 2.186 6.85 3.439 10.21z" fill="#b1995a" opacity=".3"/><g opacity=".4"><g fill="#b1995a"><path d="m949.627 2486.96c.779.05 1.512-.02 2.237-.33.114-.05.226-.1.336-.16.109-.06.215-.12.317-.19.103-.07.202-.15.298-.23.095-.08.185-.16.272-.25s.169-.19.246-.28c.077-.1.15-.2.217-.31.067-.1.129-.21.185-.32s.107-.22.151-.34.082-.24.114-.36c.033-.12.059-.25.078-.37.02-.13.033-.26.041-.38.007-.13.008-.26.003-.38-.005-.13-.017-.26-.034-.38-.018-.13-.042-.25-.072-.37-.03-.13-.066-.25-.108-.37s-.09-.24-.144-.35c-.56-1.2-1.507-1.82-2.723-2.24-1.106-.1-1.973-.08-2.96.52-.107.07-.211.14-.311.21-.1.08-.196.16-.288.24-.092.09-.18.18-.263.27-.084.1-.162.19-.236.3-.074.1-.142.2-.205.31-.064.11-.122.22-.174.33-.053.12-.099.23-.14.35s-.076.24-.105.36c-.03.13-.053.25-.07.38s-.028.26-.033.38c-.004.13-.002.26.006.39.008.12.022.25.043.38.021.12.048.25.081.37.033.13.072.25.117.37s.096.24.152.35c.057.12.119.23.187.34.67 1.06 1.596 1.51 2.785 1.76z"/><path d="m950.23 2590.31c.642-.01 1.274-.21 1.84-.51.947-.48 1.63-1.27 1.924-2.31.303-1.05.2-2.24-.373-3.19-.724-1.21-1.792-1.67-3.083-2.03-.811.06-1.509.17-2.235.57-.988.54-1.698 1.44-1.961 2.54-.252 1.05-.086 2.2.524 3.11.806 1.19 2.01 1.58 3.364 1.82z"/><path d="m815.052 2462.08c.2-1.86.975-4.18 2.059-5.72 2.148-3.04 5.586-3.7 9.01-4.3-2.494-.24-4.913-.48-7.025-1.97-2.656-1.86-3.39-4.65-3.916-7.68l-.036-.27c-.473.51-.977 3.97-1.835 5.2-2.238 3.24-4.871 4.02-8.543 4.69 2.002.36 4.089.91 5.815 2.02 2.926 1.9 3.776 4.81 4.471 8.03z"/></g><path d="m814.736 2453.89c.455-.36.843-.85 1.297-1.23.159-.13.175-.3.243-.49-.119-.66-.967-1.27-1.459-1.71-.177.03-.351.07-.525.11-.001.08.001.16-.005.23-.038.52-.652 1.34-1.046 1.66l.045-.11-.071.08.456.05c.431.4.73.74.997 1.27.023.05.045.09.068.14z" fill="#5a2825"/><path d="m978.839 2472.75c.737-.97 1.088-3.69 1.726-5 2.059-4.26 6.473-6.02 10.69-7.45-1.943-.65-3.883-1.37-5.673-2.37-4.478-2.52-5.32-5.75-6.645-10.41l-.444 1.73c-.564 1.7-1.155 3.42-2.075 4.96-2.633 4.43-7.4 5.17-11.979 6.35 2.716.8 5.481.92 8.028 2.28 3.925 2.11 5.138 5.9 6.372 9.91z" fill="#b1995a"/><path d="m978.789 2463.59c1.35-1.11 2.29-2.41 3.79-3.41-1.493-.79-2.428-1.84-3.539-3.07-.008 0-.017 0-.025 0-.083 0-.174-.01-.248.03-.096.05-2.419 2.59-3.142 3.13 1.297.77 2.226 2.16 3.164 3.32z" fill="#5a2825"/><path d="m977.031 2631.76c.301-.38 2.725-8.09 3.335-9.54 3.346-7.94 9.119-8.28 16.317-11.19-1.877-.57-3.778-1.14-5.611-1.84-7.99-3.06-9.857-4.89-12.399-13.04-.511-1.64-.862-3.47-1.586-5.02-.043-.09-.087-.18-.13-.27-.88 3.06-1.757 6.13-2.941 9.09-.558 1.39-1.193 2.76-2.171 3.91-3.272 3.87-10.135 5.6-14.681 7.55 3.604 1 8.081 2.44 11.304 4.29 5.383 3.09 7.026 10.5 8.563 16.06z" fill="#b1995a"/><path d="m977.213 2614.31c.431-.69.662-1.48.933-2.24.421-.1.888-.16 1.26-.39.207-.12.141-.09.18-.36-.479-.48-1.217-.7-1.833-.97-.177-.54-.314-1.17-.675-1.62-.883 1.41-1.434 2.07-3.004 2.7.608.25 1.219.46 1.845.65.488.73.931 1.43 1.294 2.23z" fill="#5a2825"/><path d="m988.068 2559.72c2.771-4.43 2.052-16.5 2.028-21.8 1.819 1.81 12.934 12.29 14.364 12.53l.1-.18c-.63-1.63-10.893-12.43-12.838-14.06 9.478.16 18.918.26 28.368-.63 2.59-.24 5.5-.43 8.01-1.16-3.09-.59-6.3-.82-9.43-1.09-4.47-.4-8.95-.64-13.43-.73-4.49-.1-8.97-.04-13.451.17 1.745-2.06 12.681-13.46 12.771-15.11-1.5.17-13.011 11.46-14.618 13.25.133-3.01.189-6.02.167-9.03.03-2.51-.429-11.25-1.903-13.02l-.248.05c-2.329 3.49-1.654 17.38-1.509 22.02-2.122-2.02-12.31-11.88-13.844-12.5l-.189.34c.287 1.54 10.277 12.13 12.158 13.98-4.25-.12-16.263-.65-19.889 1.03-.948.44-1.943 1.49-2.798 2.12 3.844.53 7.696.44 11.565.4l11.229-.09c-2.042 1.58-11.668 12.64-12.371 14.68l.168.06c2.028-.94 12.006-10.96 13.818-13.18-.038 6.97-.641 15.44 1.772 21.95z" fill="#b1995a"/></g><path d="m755.558 2364.35c.499-1.84.661-3.91.901-5.81 1.152-9.11 1.182-18.24.94-27.4 3.108 3.08 6.303 6.03 9.523 8.99 1.926 1.78 3.793 3.7 5.887 5.27-1.346-1.98-3.078-3.74-4.672-5.52l-9.028-9.94c6.321.34 12.696.17 19.025.16-.044-1.02-.001-2.06.005-3.08-6.573.01-13.192.23-19.759.1 3.265-3.23 6.303-6.74 9.361-10.17 1.537-1.72 3.425-3.44 4.602-5.42-1.982 1.46-3.809 3.28-5.64 4.94-3.105 2.8-6.245 5.56-9.111 8.61-.136-7.34-.188-14.68-.155-22.02-.572.32-1.081.53-1.719.69-.723-.16-1.222-.46-1.832-.86-.271 2.81-.055 5.8-.04 8.63.024 4.5-.03 9 .033 13.51-3.117-2.83-6.137-5.77-9.237-8.62-1.841-1.69-3.629-3.55-5.804-4.81 1.34 1.69 2.882 3.23 4.314 4.84 3.194 3.6 6.411 7.19 9.65 10.76-6.6-.07-13.201-.1-19.802-.08l.026 2.92c2.286.15 4.638.06 6.932.06 4.05.04 8.098 0 12.146-.14-1.368 1.15-2.489 2.58-3.713 3.87-3.535 3.75-6.989 7.58-10.363 11.48.041-.02.083-.04.123-.06.068-.03.134-.06.201-.1 1.493-.72 2.821-2.28 4.025-3.41 2.093-1.98 4.272-3.86 6.365-5.83 1.541-1.45 3.141-3.34 4.906-4.5-.21 9.1-.062 18.1 1.086 27.13.242 1.9.358 3.96.824 5.81z" fill="#b1995a" opacity=".3"/><path d="m810.619 2158.35c.215-.08.352-.17.525-.34.924-.86 1.395-2.25 1.631-3.47.408-2.1.251-4.38.261-6.51-.008-3.52.027-7.03.106-10.55 2.459 2 10.687 10.11 12.988 10.72.308.08.323.09.602-.08-.723-2.14-9.419-9.96-11.549-12.33 2.754.11 18.144.57 19.809-.12.219-1.01.02-2.25-.04-3.28-6.67.01-13.332-.13-20.001.03 4.166-4.83 8.773-9.07 12.566-14.24-4.594 2.97-10.35 8.45-14.345 12.31.022-3.72-.103-7.44-.132-11.16-.027-3.49.059-7.02-.208-10.51-.294-3.84-.902-7.61-1.571-11.4l-.289-1.79c-.747 4.28-1.413 8.71-1.697 13.04-.477 7.26-.197 14.66-.201 21.94-2.288-2.8-11.053-10.33-14.239-12.2 3.659 4.85 8.278 9.65 12.472 14.08-2.306-.22-4.691-.12-7.007-.11l-11.259.05c-.047 1.06-.032 2.14-.041 3.21 5.675.35 12.15.24 17.867.2-3.793 4.06-8.34 9.22-11.139 14 2.785-2.02 5.208-4.54 7.646-6.95 1.908-1.88 3.85-3.73 5.71-5.66.01 6.4-.051 12.86.203 19.25.416.65.857 1.26 1.332 1.87z" fill="#b1995a" opacity=".3"/><path d="m553.201 2361.9c-.025 5.28.011 10.54.321 15.82.077 1.32.024 2.96.365 4.23.095.35.372.73.641.98.295.27.485.38.879.42.434-.34.468-1.18.528-1.69.734-6.37.653-13.68.5-20.11 3.017 3.21 6.511 6.01 9.822 8.92 1.06.93 2.051 2.1 3.161 2.95.277.21.588.37.938.41.059.01.119.01.179.01.052-.33-.059-.38-.251-.63-1.05-1.38-2.318-2.66-3.474-3.96-2.833-3.17-5.7-6.27-8.724-9.27 4.925.46 9.953.28 14.895.22 2.195-.02 4.894.22 7.025-.32.974-.25 1.783-.88 2.546-1.51l-2.148-1.42c-5.048-.2-10.099-.29-15.152-.25-2.329.03-4.727-.03-7.036.31 2.673-2.93 5.275-5.92 7.915-8.88 1.414-1.58 3.347-3.3 4.387-5.14l-.075-.29.069.31-.11-.3.136-.01.009.23-.157-.22c-1.458.73-2.803 2.4-4.029 3.5-3.409 3.06-6.904 5.93-10.005 9.32.221-3.35.501-19.4-1.202-21.42-.159-.19-.255-.25-.481-.32-.44.14-.657.36-.868.77-.951 1.89-.658 13.37-.637 16.02.011 1.4.253 3.13-.042 4.47-.222.03-.122.04-.301 0-.603-1.33-11.746-11.21-13.774-12.61.12.37.246.71.481 1.03 1.418 1.88 3.239 3.63 4.828 5.38 2.183 2.4 4.348 5.11 6.779 7.25l.493.61-.096.11c-3.052-.12-6.105-.16-9.16-.13-3.054.03-6.106.12-9.155.29-3.05.17-6.094.41-9.133.73-3.038.31-6.067.69-9.088 1.14 11.457 1.42 25.125 2.15 36.664 1.3-1.354 1.34-12.061 12.94-12.344 14.17.373.04.948-.5 1.243-.74 4.455-3.61 8.411-7.82 12.638-11.68z" fill="#b1995a" opacity=".3"/><g opacity=".3"><g fill="#b1995a"><path d="m406.25 1807.74c1.247.12 2.37.16 3.546-.35 1.533-.66 2.763-1.88 3.363-3.45.537-1.41.505-2.96-.161-4.31-.77-1.57-2.154-2.53-3.761-3.09-1.438-.31-2.761-.36-4.133.25-.182.08-.36.17-.533.28-.174.1-.341.21-.503.32-.161.12-.316.25-.464.38-.149.14-.29.28-.423.43s-.258.31-.375.47-.224.33-.323.51c-.099.17-.189.35-.268.53-.081.19-.151.37-.211.57-.499 1.53-.385 3.26.4 4.69.864 1.57 2.162 2.34 3.846 2.77z"/><path d="m406.939 1957.81c1.265.02 2.323-.08 3.467-.67.167-.08.33-.17.488-.28.157-.1.31-.21.457-.32.146-.12.287-.24.421-.37s.262-.27.382-.41c.121-.15.234-.3.339-.45.105-.16.203-.32.291-.48.09-.17.17-.33.242-.51.072-.17.136-.35.19-.53.059-.19.108-.38.147-.58.04-.19.069-.39.087-.59.019-.2.027-.4.025-.6s-.015-.4-.037-.6c-.023-.2-.057-.39-.1-.59-.044-.19-.097-.38-.16-.57-.064-.19-.137-.38-.22-.56s-.175-.36-.276-.53c-.997-1.73-2.515-2.52-4.372-3.03-1.417-.16-2.767.06-4.005.79-.159.1-.312.2-.461.31-.148.11-.291.22-.427.35-.137.12-.267.25-.391.39-.124.13-.241.28-.351.42-.11.15-.212.3-.306.46s-.181.32-.259.49-.148.34-.21.51c-.061.18-.114.35-.157.53-.05.2-.09.4-.12.6s-.05.4-.06.61c-.009.2-.008.4.002.61.011.2.032.4.063.6s.072.4.124.6c.051.2.111.39.182.58s.151.38.24.56c.09.18.188.36.295.53 1.064 1.68 2.609 2.31 4.47 2.73z"/><path d="m364.234 1771.23c.291-2.71 1.421-6.09 3.002-8.33 3.132-4.45 8.146-5.4 13.139-6.27-3.637-.36-7.165-.71-10.244-2.87-3.873-2.72-4.944-6.78-5.711-11.2l-.053-.4c-.688.74-1.424 5.78-2.674 7.59-3.264 4.71-7.104 5.85-12.459 6.82 2.92.53 5.963 1.34 8.48 2.96 4.267 2.76 5.507 7.02 6.52 11.7z"/></g><path d="m363.775 1759.29c.664-.52 1.23-1.24 1.89-1.79.233-.2.256-.44.356-.72-.175-.96-1.411-1.85-2.128-2.49-.258.04-.512.11-.766.17-.002.11.001.22-.006.33-.056.76-.951 1.96-1.526 2.41l.066-.15-.104.11.665.07c.629.59 1.065 1.08 1.453 1.86.034.07.067.13.1.2z" fill="#5a2825"/><path d="m366.292 2015.27c1.546-3.78 1.832-7.85 4.056-11.43 3.536-5.7 9.441-7.48 15.619-8.91-2.338-.75-4.678-1.33-6.953-2.29-6.881-2.89-10.29-8.28-11.961-15.36-.128-.54-.236-1.69-.658-2-.681 2.94-1.268 5.93-2.59 8.67-3.43 7.11-10.57 8.86-17.405 11.21 4.122.76 8.39 1.84 11.915 4.21 5.522 3.71 6.763 9.76 7.977 15.9z" fill="#b1995a"/><path d="m366.543 2001.63c.224-.22.142-.11.297-.4 1.501-2.85 3.329-4.84 5.987-6.64-2.532-1.69-4.513-3.86-6.351-6.26-.874 2.05-4.466 5.28-6.392 6.42 2.565 2.01 4.956 3.93 6.459 6.88z" fill="#5a2825"/><path d="m513.998 1804.61c-.122-.31-.259-.51-.495-.77-1.264-1.35-3.286-2.04-5.065-2.38-3.061-.6-6.377-.38-9.489-.4-5.129 0-10.258-.06-15.386-.18 2.925-3.58 14.765-15.56 15.667-18.91.121-.45.134-.47-.114-.88-3.127 1.05-14.545 13.71-18.015 16.81.175-4.02.878-26.46-.123-28.89-1.473-.32-3.276-.03-4.788.05.001 9.73-.214 19.44-.005 29.17-7.022-6.09-13.195-12.82-20.728-18.36 4.317 6.71 12.303 15.11 17.915 20.95-5.429-.04-10.844.13-16.271.16-5.098.04-10.239-.1-15.325.28-5.602.42-11.096 1.3-16.624 2.26l-2.613.42c6.239 1.1 12.685 2.08 19.004 2.51 10.587.71 21.378.32 31.989.34-4.077 3.33-15.085 16.1-17.822 20.74 7.085-5.33 14.093-12.05 20.56-18.15-.329 3.36-.178 6.84-.174 10.21l.041 16.42c1.556.07 3.124.05 4.681.07.523-8.28.39-17.72.333-26.05 5.913 5.54 13.438 12.18 20.392 16.27-2.931-4.06-6.608-7.6-10.114-11.16-2.742-2.79-5.427-5.63-8.24-8.34 9.333 0 18.748.1 28.07-.25.956-.61 1.846-1.25 2.739-1.94z" fill="#b1995a"/></g><path d="m756.997 1825.35c1.075-1.4 1.587-5.37 2.517-7.29 3.003-6.21 9.439-8.77 15.588-10.87-2.834-.94-5.662-1.99-8.273-3.45-6.528-3.67-7.757-8.38-9.689-15.18l-.647 2.52c-.823 2.48-1.685 4.99-3.026 7.24-3.84 6.45-10.791 7.54-17.467 9.25 3.96 1.17 7.992 1.35 11.706 3.34 5.723 3.06 7.492 8.6 9.291 14.44z" fill="#b1995a" opacity=".3"/><path d="m756.925 1812c1.967-1.62 3.338-3.51 5.526-4.98-2.177-1.15-3.54-2.67-5.161-4.47-.012 0-.024-.01-.037-.01-.121.01-.253 0-.361.05-.14.07-3.527 3.78-4.581 4.57 1.89 1.12 3.245 3.15 4.614 4.84z" fill="#5a2825" opacity=".3"/><path d="m691.177 1586.35c4.041-6.46 2.993-24.05 2.957-31.78 2.652 2.64 18.859 17.91 20.947 18.27l.146-.27c-.926-2.37-15.885-18.11-18.721-20.49 13.821.22 27.588.38 41.363-.92 3.786-.36 8.029-.63 11.685-1.69-4.502-.87-9.195-1.21-13.76-1.6-6.515-.58-13.042-.93-19.581-1.06-6.54-.14-13.076-.05-19.609.25 2.544-3.01 18.494-19.62 18.621-22.04-2.18.25-18.972 16.71-21.314 19.33.193-4.39.274-8.78.243-13.17.044-3.67-.627-16.41-2.775-18.99l-.362.08c-3.396 5.08-2.411 25.34-2.2 32.1-3.095-2.94-17.951-17.32-20.188-18.22l-.275.49c.419 2.24 14.986 17.69 17.728 20.39-6.196-.17-23.714-.94-29.002 1.5-1.382.64-2.833 2.17-4.08 3.1 5.606.77 11.222.63 16.865.58l16.374-.14c-2.978 2.31-17.015 18.44-18.04 21.4l.245.1c2.957-1.37 17.507-15.98 20.15-19.22-.056 10.16-.935 22.51 2.583 32z" fill="#b1995a" opacity=".3"/><path d="m441.969 2174.35c.44-.56 3.974-11.8 4.864-13.91 4.879-11.57 13.296-12.07 23.794-16.32-2.737-.83-5.509-1.66-8.183-2.68-11.65-4.46-14.373-7.13-18.08-19.02-.744-2.38-1.257-5.05-2.313-7.31-.062-.13-.126-.26-.189-.39-1.284 4.46-2.562 8.93-4.288 13.25-.814 2.03-1.74 4.02-3.166 5.7-4.772 5.64-14.779 8.16-21.408 11 5.255 1.47 11.784 3.57 16.484 6.27 7.849 4.5 10.245 15.3 12.485 23.41z" fill="#b1995a" opacity=".3"/><path d="m442.237 2148.91c.628-1 .965-2.16 1.36-3.27.615-.14 1.296-.23 1.839-.56.301-.19.205-.14.262-.53-.699-.7-1.775-1.03-2.673-1.41-.259-.8-.459-1.71-.985-2.37-1.288 2.06-2.091 3.02-4.38 3.94.887.36 1.777.66 2.69.95.713 1.07 1.358 2.08 1.887 3.25z" fill="#5a2825" opacity=".3"/><path d="m976.181 1723.86c2.771-4.43 2.053-16.5 2.028-21.8 1.819 1.81 12.933 12.29 14.365 12.53l.1-.18c-.635-1.63-10.893-12.43-12.838-14.06 9.478.16 18.919.26 28.364-.63 2.6-.24 5.51-.43 8.01-1.16-3.08-.59-6.3-.82-9.43-1.09-4.47-.4-8.946-.64-13.43-.73-4.485-.1-8.967-.04-13.448.17 1.745-2.06 12.683-13.46 12.771-15.11-1.495.17-13.011 11.46-14.617 13.25.132-3.01.188-6.02.166-9.03.03-2.52-.429-11.26-1.902-13.02l-.249.05c-2.328 3.48-1.653 17.38-1.508 22.02-2.123-2.02-12.311-11.88-13.845-12.5l-.189.34c.288 1.54 10.277 12.13 12.158 13.98-4.249-.12-16.263-.65-19.889 1.03-.948.44-1.943 1.49-2.798 2.12 3.845.53 7.696.44 11.566.4l11.228-.1c-2.042 1.59-11.668 12.65-12.371 14.68l.168.07c2.028-.94 12.006-10.96 13.818-13.18-.038 6.97-.641 15.44 1.772 21.95z" fill="#b1995a" opacity=".4"/><path d="m748.619 3133.72c.215-.08.352-.18.525-.34.924-.87 1.395-2.25 1.631-3.47.408-2.1.251-4.38.261-6.51-.008-3.52.027-7.04.106-10.55 2.459 2 10.687 10.1 12.988 10.72.308.08.323.09.602-.08-.723-2.14-9.419-9.96-11.549-12.34 2.754.12 18.144.58 19.809-.11.219-1.01.02-2.25-.04-3.29-6.67.02-13.332-.12-20.001.03 4.166-4.82 8.773-9.06 12.566-14.23-4.594 2.97-10.35 8.45-14.345 12.31.022-3.73-.103-7.44-.132-11.16-.027-3.5.059-7.02-.208-10.51-.294-3.84-.902-7.61-1.571-11.4l-.289-1.79c-.747 4.28-1.413 8.7-1.697 13.04-.477 7.26-.197 14.66-.201 21.93-2.288-2.79-11.053-10.32-14.239-12.19 3.659 4.85 8.278 9.65 12.472 14.07-2.306-.22-4.691-.11-7.007-.1l-11.259.04c-.047 1.07-.032 2.15-.041 3.21 5.675.35 12.15.25 17.867.2-3.793 4.06-8.34 9.23-11.139 14.01 2.785-2.02 5.208-4.55 7.646-6.95 1.908-1.89 3.85-3.73 5.71-5.66.01 6.4-.051 12.85.203 19.25.416.65.857 1.26 1.332 1.87z" fill="#b1995a" opacity=".3"/></g></svg>